<?xml version="1.0" encoding="UTF-8"?>
<svg xmlns="http://www.w3.org/2000/svg" viewBox="0 0 600 600" width="64" height="64">
  <title>Ssstyles</title>
  <path fill="#9a2851"
    d="M444.6,135.86c-.8-.58-1.6-1.14-2.41-1.7-.37-.26-.75-.51-1.12-.77-.89-.6-1.78-1.18-2.67-1.75-.26-.16-.52-.34-.77-.5-1.14-.72-2.29-1.41-3.45-2.09-.29-.17-.57-.32-.86-.49-.89-.51-1.78-1.01-2.67-1.49-.39-.21-.78-.42-1.17-.62-.85-.45-1.7-.88-2.55-1.3-.35-.18-.7-.35-1.06-.53-1.19-.58-2.38-1.13-3.58-1.67-.09-.04-.19-.08-.28-.12-1.11-.49-2.23-.96-3.35-1.41-6.03-2.44-12.22-4.36-18.56-5.74-1.95-.42-3.91-.79-5.87-1.12,2.79,1.86,5.56,3.84,8.27,5.97l46.47,18.58c-1.11-.86-2.22-1.7-3.34-2.52-.34-.25-.69-.5-1.03-.74Z" />
  <path fill="#689cbe"
    d="M370.03,238.32c2.54.39,5.02.81,7.48,1.24.61.11,1.23.22,1.84.33,2.44.44,4.86.89,7.22,1.37.03,0,.05.01.08.02,2.34.47,4.63.97,6.9,1.49.57.13,1.14.26,1.71.39,2.27.53,4.51,1.07,6.7,1.63.06.02.12.03.18.05,2.14.55,4.23,1.13,6.3,1.72.53.15,1.05.3,1.57.45,2.1.61,4.17,1.24,6.18,1.89.08.03.16.05.24.08,1.95.63,3.85,1.29,5.73,1.95.48.17.96.34,1.44.52,1.92.7,3.82,1.41,5.67,2.15.02,0,.04.01.05.02l-46.47-18.58c-16.68-6.67-36.45-11.76-59.3-15.3-2.55-.42-5.03-.84-7.45-1.26l46.47,18.58c2.42.42,4.9.84,7.45,1.26Z" />
  <path fill="#689cbe"
    d="M238.18,495.22c.46.17.93.33,1.4.49,1.06.37,2.12.72,3.18,1.06.42.13.85.27,1.27.4,1.46.45,2.93.87,4.41,1.27.15.04.3.07.44.11,1.34.35,2.68.68,4.04.99.47.11.93.21,1.4.31,1.08.23,2.17.46,3.26.66.47.09.95.18,1.42.27,1.35.24,2.71.46,4.08.66.17.03.34.06.52.08,1.53.22,3.08.4,4.63.57.45.05.9.09,1.35.13,1.14.11,2.29.21,3.43.29.51.04,1.01.07,1.52.1,1.24.07,2.49.13,3.75.17.35.01.7.03,1.05.04,1.59.04,3.18.05,4.79.04.4,0,.8-.02,1.21-.02,1.23-.02,2.47-.05,3.71-.1.53-.02,1.06-.05,1.59-.07,1.21-.06,2.43-.14,3.65-.23.45-.03.9-.06,1.35-.1,1.65-.14,3.3-.3,4.96-.48.28-.03.57-.07.85-.11,1.4-.17,2.8-.35,4.2-.55.54-.08,1.08-.16,1.61-.24,1.22-.19,2.45-.39,3.68-.6.52-.09,1.03-.18,1.55-.27,1.71-.31,3.42-.65,5.14-1.01,22.84-4.86,41.16-14.58,54.96-29.18,13.79-14.59,20.76-32.28,20.91-53.05.1-13.23-2.32-23.81-7.26-31.7-4.94-7.89-13.21-14.22-24.78-19.02-7.66-3.17-17.49-5.99-29.47-8.46,3.14,2.71,5.76,5.67,7.78,8.9,4.94,7.89,7.36,18.47,7.26,31.7-.15,20.77-7.13,38.45-20.91,53.05-13.8,14.6-32.11,24.32-54.96,29.18-21.14,4.49-41,5-59.6,1.55,7.47,4.8,15.2,8.77,23.2,11.91,1.13.45,2.27.88,3.42,1.29Z" />
  <path fill="#9a2851"
    d="M316.11,218.48c-10.48-1.81-19.76-3.59-27.84-5.35,4.52,4.36,10.9,8.07,19.11,11.12.44.16.86.33,1.3.49,1.26.45,2.56.88,3.91,1.3.12.04.23.08.36.12,11.4,3.53,27.96,7.16,49.64,10.91l-46.47-18.58Z" />
  <path fill="#689cbe"
    d="M185.43,584.15c-1.73-.81-3.45-1.64-5.15-2.51-.58-.3-1.16-.59-1.73-.9-1.9-1-3.78-2.03-5.63-3.1-.15-.09-.3-.16-.45-.25-1.99-1.16-3.94-2.38-5.88-3.63-.53-.34-1.06-.69-1.58-1.04-1.54-1.02-3.07-2.07-4.58-3.14-.44-.31-.88-.62-1.32-.94-1.87-1.36-3.71-2.76-5.54-4.21-.39-.31-.77-.63-1.16-.95-1.48-1.2-2.94-2.43-4.39-3.69-.5-.43-.99-.86-1.49-1.3-1.78-1.58-3.54-3.18-5.26-4.85l-46.47-18.58c15.49,14.95,32.89,26.29,52.2,34.01l46.47,18.58c-.18-.07-.35-.15-.52-.22-2.13-.86-4.24-1.76-6.33-2.71-.4-.18-.79-.38-1.18-.56Z" />
  <path fill="#73aed4"
    d="M489.62,305.62c-10.39-19.69-25.33-34.65-44.81-44.9-4.84-2.55-10.02-4.92-15.54-7.13-1.85-.74-3.75-1.45-5.67-2.15-.48-.17-.96-.35-1.44-.52-1.88-.67-3.78-1.32-5.73-1.95-.08-.03-.16-.05-.24-.08-2.02-.65-4.09-1.28-6.18-1.89-.52-.15-1.05-.3-1.57-.45-2.07-.59-4.16-1.17-6.3-1.72-.06-.02-.12-.03-.18-.05-2.19-.56-4.43-1.1-6.7-1.63-.57-.13-1.14-.26-1.71-.39-2.27-.51-4.56-1.01-6.9-1.49-.03,0-.05-.01-.08-.02-2.37-.48-4.78-.93-7.22-1.37-.61-.11-1.22-.22-1.84-.33-2.46-.43-4.95-.85-7.48-1.24-2.55-.42-5.03-.84-7.45-1.26l-54.32,116.46c1.2.2,2.37.39,3.58.57,7.29,1.09,13.99,2.27,20.14,3.54,11.98,2.48,21.81,5.3,29.47,8.46,11.58,4.8,19.84,11.13,24.78,19.02,4.94,7.89,7.36,18.47,7.26,31.7-.15,20.77-7.13,38.45-20.91,53.05-13.8,14.6-32.11,24.32-54.96,29.18-1.72.37-3.44.7-5.14,1.01-.52.1-1.03.18-1.55.27-1.23.22-2.46.42-3.68.6-.54.08-1.08.17-1.61.24-1.41.2-2.81.39-4.2.55-.28.03-.57.07-.85.11-1.66.19-3.32.35-4.96.48-.45.04-.9.06-1.35.1-1.22.09-2.44.17-3.65.23-.53.03-1.06.05-1.59.07-1.24.05-2.48.08-3.71.1-.4,0-.81.02-1.21.02-1.6.01-3.2,0-4.79-.04-.35,0-.7-.03-1.05-.04-1.25-.04-2.5-.1-3.75-.17-.51-.03-1.02-.07-1.52-.1-1.15-.08-2.29-.18-3.43-.29-.45-.04-.9-.08-1.35-.13-1.55-.16-3.1-.35-4.63-.57-.17-.02-.34-.06-.52-.08-1.37-.2-2.73-.42-4.08-.66-.48-.08-.95-.18-1.42-.27-1.09-.21-2.18-.43-3.26-.66-.47-.1-.94-.2-1.4-.31-1.35-.31-2.7-.64-4.04-.99-.15-.04-.3-.07-.44-.11-1.48-.39-2.95-.82-4.41-1.27-.43-.13-.85-.27-1.27-.4-1.06-.34-2.13-.69-3.18-1.06-.47-.16-.93-.32-1.4-.49-1.15-.41-2.28-.84-3.42-1.29-8-3.14-15.73-7.11-23.2-11.91-5.33-3.43-10.53-7.27-15.59-11.54l-4.09,6.22-.05.08-50.55,76.85c1.73,1.67,3.49,3.27,5.26,4.85.49.44.99.87,1.49,1.3,1.45,1.26,2.91,2.49,4.39,3.69.39.31.77.64,1.16.95,1.82,1.45,3.67,2.85,5.54,4.21.44.32.88.62,1.32.94,1.51,1.08,3.04,2.12,4.58,3.14.53.35,1.05.7,1.58,1.04,1.94,1.25,3.9,2.47,5.88,3.63.15.09.3.16.45.25,1.86,1.08,3.74,2.11,5.63,3.1.58.3,1.15.6,1.73.9,1.7.87,3.42,1.71,5.15,2.51.4.18.78.38,1.18.56,2.09.95,4.2,1.85,6.33,2.71,35.66,14.41,77.86,16.44,126.61,6.08,37.64-8,70.39-22.15,98.23-42.46,27.84-20.3,49.25-44.94,64.24-73.92,14.98-28.97,22.6-60.2,22.84-93.68.23-32.18-4.85-58.13-15.24-77.82Z" />

  <path fill="#689cbe"
    d="M191.82,476.78l-4.26-1.7c1.43.57,2.87,1.11,4.31,1.63l4.09-6.22-46.47-18.58-54.7,83.16,46.47,18.58,50.55-76.85Z" />
  <path fill="#ff297a" d="M425.86,124.64c.35.17.71.35,1.06.53-.35-.18-.7-.35-1.06-.53Z" />
  <path fill="#ff297a"
    d="M453.51,29.36c-1.84-.74-3.71-1.43-5.59-2.09-.56-.2-1.13-.39-1.69-.58-1.38-.47-2.77-.92-4.16-1.35-.6-.19-1.2-.37-1.8-.55-1.66-.49-3.33-.95-5.02-1.39-.28-.07-.55-.15-.83-.22-1.96-.5-3.94-.95-5.94-1.38-.56-.12-1.12-.23-1.69-.34-1.49-.3-2.98-.58-4.49-.84-.65-.11-1.3-.22-1.96-.33-1.63-.26-3.27-.5-4.93-.72-.44-.06-.88-.13-1.32-.18-2.08-.26-4.18-.48-6.29-.66-.53-.05-1.07-.08-1.61-.12-1.63-.13-3.26-.24-4.91-.33-.69-.04-1.39-.07-2.09-.1-1.65-.07-3.31-.12-4.98-.15-.56,0-1.11-.03-1.68-.03-2.2-.02-4.42,0-6.66.05-.46.01-.93.03-1.4.05-1.81.05-3.62.13-5.45.23-.73.04-1.46.09-2.19.13-1.69.11-3.4.24-5.11.38-.65.06-1.31.11-1.96.17-2.33.22-4.67.47-7.03.76-.32.04-.64.09-.96.13-2.07.26-4.14.55-6.24.87-.75.11-1.5.23-2.25.35-1.76.28-3.54.58-5.32.9-.73.13-1.46.26-2.2.39-2.46.46-4.92.94-7.41,1.47-31.55,6.71-60.32,19.04-86.3,37-25.98,17.96-46.63,40.43-61.91,67.39-15.3,26.97-23.06,56.41-23.29,88.33-.2,27.79,4.46,50.76,14.01,68.95,9.52,18.18,24.9,32.79,46.11,43.85,1.24.65,2.51,1.28,3.8,1.91.43.21.88.41,1.31.62.87.41,1.74.83,2.63,1.23.54.24,1.09.48,1.64.72.82.36,1.63.72,2.46,1.07.59.25,1.2.49,1.8.74,18.41,7.58,40.95,13.54,67.64,17.84l54.32-116.46c-21.68-3.74-38.25-7.38-49.64-10.91-.12-.04-.23-.08-.36-.12-1.34-.42-2.65-.85-3.91-1.3-.45-.16-.87-.33-1.3-.49-8.2-3.06-14.58-6.76-19.11-11.12-.87-.84-1.69-1.7-2.43-2.59-5.39-6.49-8.03-15.59-7.94-27.27.12-16.87,6.3-31.21,18.56-43.02,12.26-11.8,28.83-19.93,49.71-24.36,16.43-3.49,32.45-3.92,48.06-1.31-.97-.64-1.93-1.29-2.9-1.9.97.61,1.94,1.26,2.9,1.9,1.96.33,3.92.7,5.87,1.12,6.34,1.38,12.53,3.3,18.56,5.74,1.12.45,2.24.92,3.35,1.41.08.04.16.07.25.1.01,0,.03.01.04.02,1.2.53,2.39,1.09,3.58,1.67.35.17.71.35,1.06.53.85.42,1.7.86,2.55,1.3.21.11.42.21.63.32.18.1.36.2.53.3.89.48,1.78.98,2.67,1.49.29.16.57.32.86.49,1.16.68,2.31,1.37,3.45,2.09.06.03.11.07.17.1.2.13.4.27.61.4.89.57,1.78,1.15,2.67,1.75.38.25.75.51,1.12.77.81.55,1.61,1.12,2.41,1.7.34.25.69.49,1.03.74,1.12.82,2.23,1.66,3.34,2.52l51.09-80.05c-13.94-12.98-29.45-22.88-46.54-29.71ZM305.39,223.51l-46.47-18.58s0,0,0,0l46.47,18.58Z" />
  <path fill="#9a2851"
    d="M407.05,10.79c-32.64-13.05-71.03-14.89-115.16-5.51-31.55,6.71-60.32,19.04-86.3,37-25.98,17.96-46.63,40.43-61.91,67.39-15.3,26.97-23.06,56.41-23.29,88.33-.2,27.79,4.46,50.76,14.01,68.95,9.52,18.18,24.9,32.79,46.11,43.85,3.61,1.88,7.42,3.67,11.44,5.39,1.34.57,2.7,1.13,4.09,1.69l46.47,18.58c-.64-.26-1.25-.52-1.88-.78-.6-.25-1.21-.49-1.8-.74-.83-.35-1.65-.71-2.46-1.07-.55-.24-1.1-.48-1.64-.72-.89-.4-1.76-.82-2.63-1.23-.44-.21-.88-.41-1.31-.62-1.29-.63-2.56-1.26-3.8-1.91-21.22-11.05-36.59-25.66-46.11-43.85-9.54-18.19-14.21-41.17-14.01-68.95.23-31.92,8-61.37,23.29-88.33,15.29-26.96,35.93-49.43,61.91-67.39,25.98-17.96,54.75-30.29,86.3-37,2.49-.53,4.96-1.01,7.41-1.47.73-.14,1.46-.26,2.2-.39,1.78-.32,3.55-.62,5.32-.9.75-.12,1.51-.24,2.25-.35,2.09-.32,4.17-.6,6.24-.87.32-.04.64-.09.96-.13,2.36-.29,4.7-.54,7.03-.76.66-.06,1.31-.11,1.96-.17,1.71-.15,3.42-.28,5.11-.38.73-.05,1.46-.09,2.19-.13,1.83-.1,3.65-.17,5.45-.23.46-.01.93-.04,1.4-.05,2.24-.05,4.46-.06,6.66-.05.56,0,1.12.02,1.68.03,1.67.03,3.33.08,4.98.15.7.03,1.39.06,2.09.1,1.65.09,3.28.2,4.91.33.53.04,1.07.08,1.61.12,2.12.19,4.21.41,6.29.66.44.05.88.12,1.32.18,1.65.22,3.3.46,4.93.72.3.05.6.08.9.13.36.06.7.14,1.06.2,1.51.26,3,.54,4.49.84.56.11,1.13.22,1.69.34,2,.42,3.98.88,5.94,1.38.05.01.1.02.14.03.23.06.46.13.69.19,1.69.44,3.36.9,5.02,1.39.25.07.5.13.75.21.36.11.7.23,1.06.34,1.4.43,2.78.88,4.16,1.35.57.19,1.14.38,1.7.58,1.87.66,3.73,1.35,5.57,2.08l-46.44-18.57Z" />
</svg>