<?xml version="1.0" encoding="UTF-8"?>
<svg id="a" data-name="Ebene 1" xmlns="http://www.w3.org/2000/svg" viewBox="0 0 800 600">
  <g style="fill: none; isolation: isolate;">
    <polygon points="684.31 164.03 714.23 152.07 716.22 426.12 686.31 438.08 684.31 164.03" style="fill: #4e7790;"/>
    <polygon points="83.78 36.39 113.69 24.43 714.23 152.07 684.31 164.03 83.78 36.39" style="fill: #5986a3;"/>
    <polygon points="684.31 164.03 686.31 438.08 85.77 310.44 83.78 36.39 684.31 164.03" style="fill: #72add3;"/>
  </g>
  <g>
    <path d="m639.51,410.71c-.03.16-.07.32-.1.49.03-.16.07-.32.1-.49Z" style="fill: none;"/>
    <path d="m641.67,392.33c0,.17-.01.35-.02.52,0-.17.01-.35.02-.52Z" style="fill: none;"/>
    <path d="m640.33,406.19c-.03.2-.07.4-.1.61.03-.2.07-.4.1-.61Z" style="fill: none;"/>
    <path d="m641.4,396.97c-.02.21-.03.42-.05.63.02-.21.03-.42.05-.63Z" style="fill: none;"/>
    <path d="m640.96,401.6c-.03.22-.05.44-.08.66.03-.22.05-.44.08-.66Z" style="fill: none;"/>
    <path d="m638.52,415.15c-.02.08-.04.17-.06.25.02-.08.04-.17.06-.25Z" style="fill: none;"/>
    <path d="m634.68,427.3c-.07.17-.13.34-.2.52.07-.17.13-.34.2-.52Z" style="fill: none;"/>
    <path d="m636.13,423.33c-.04.13-.09.27-.13.4.05-.13.09-.26.13-.4Z" style="fill: none;"/>
    <path d="m637.38,419.36s-.03.09-.04.13c.01-.04.03-.09.04-.13Z" style="fill: none;"/>
    <path d="m639.37,363.04c.05.24.09.47.13.71-.04-.24-.09-.47-.13-.71Z" style="fill: none;"/>
    <path d="m638.32,358.03c.05.2.09.4.14.61-.05-.2-.09-.4-.14-.61Z" style="fill: none;"/>
    <path d="m637.09,353.1c.04.13.07.27.11.4-.04-.13-.07-.26-.11-.4Z" style="fill: none;"/>
    <path d="m641.76,387.72c0,.09,0,.19,0,.28,0-.09,0-.19,0-.28Z" style="fill: none;"/>
    <path d="m633.05,431.22c-.08.18-.16.37-.25.55.08-.18.16-.37.25-.55Z" style="fill: none;"/>
    <path d="m641.68,383.08c0,.05,0,.1,0,.16,0-.05,0-.1,0-.16Z" style="fill: none;"/>
    <path d="m641.39,378.11c.01.16.02.31.03.47-.01-.16-.02-.31-.03-.47Z" style="fill: none;"/>
    <path d="m640.24,368.07c.04.24.07.47.11.71-.04-.24-.07-.47-.11-.71Z" style="fill: none;"/>
    <path d="m640.91,373.1c.02.21.05.43.07.64-.02-.21-.05-.43-.07-.64Z" style="fill: none;"/>
    <path d="m605.07,464.79s-.07.04-.1.06c.03-.02.07-.04.1-.06Z" style="fill: none;"/>
    <path d="m517.67,264.21c-.24.07-.48.14-.72.21.24-.07.48-.14.72-.21Z" style="fill: none;"/>
    <path d="m598.44,468.44c-.13.06-.26.13-.4.19.13-.06.26-.13.4-.19Z" style="fill: none;"/>
    <path d="m601.82,466.7c-.07.04-.14.08-.21.12.07-.04.14-.08.21-.12Z" style="fill: none;"/>
    <path d="m608.38,462.55c-.1.07-.21.14-.31.22.1-.07.21-.14.31-.22Z" style="fill: none;"/>
    <path d="m515.5,264.85c-.28.09-.57.19-.85.28.28-.09.56-.19.85-.28Z" style="fill: none;"/>
    <path d="m631.25,435.05c-.09.17-.18.35-.26.52.09-.17.18-.35.26-.52Z" style="fill: none;"/>
    <path d="m611.54,460.12c-.13.11-.26.21-.4.32.13-.11.27-.21.4-.32Z" style="fill: none;"/>
    <path d="m513.37,265.57c-.3.11-.59.22-.89.33.3-.11.59-.22.89-.33Z" style="fill: none;"/>
    <path d="m627.13,442.36c-.06.09-.12.18-.17.27.06-.09.12-.18.17-.27Z" style="fill: none;"/>
    <path d="m622.56,448.85c-.07.08-.13.17-.2.26.07-.08.13-.17.2-.26Z" style="fill: none;"/>
    <path d="m624.83,445.81s0,0,0,0c0,0,0,0,0,0Z" style="fill: none;"/>
    <path d="m614.55,457.52c-.14.13-.28.25-.42.38.14-.13.28-.25.42-.38Z" style="fill: none;"/>
    <path d="m629.27,438.77c-.08.14-.16.29-.25.43.08-.14.17-.28.25-.43Z" style="fill: none;"/>
    <path d="m620.07,451.85c-.11.12-.21.24-.32.36.11-.12.21-.24.32-.36Z" style="fill: none;"/>
    <path d="m617.39,454.76c-.13.13-.26.26-.39.4.13-.13.26-.26.39-.4Z" style="fill: none;"/>
    <path d="m665.65,336.36c-13.67-44.83-47.34-77.79-82.88-85.34-10.39-2.21-20.93-2.25-31.18.22l-1.8.43c-3.09.74-6.07,1.7-8.94,2.85l-29.91,11.96c.11-.04.23-.08.34-.13.4-.16.8-.31,1.21-.46.3-.11.59-.22.89-.33.43-.15.85-.29,1.28-.43.28-.09.56-.19.85-.28.48-.15.96-.29,1.45-.43.24-.07.48-.14.72-.21.73-.2,1.46-.4,2.21-.57l1.8-.43c10.25-2.47,20.8-2.43,31.18-.22,35.54,7.55,69.21,40.51,82.88,85.34.49,1.6.94,3.19,1.36,4.78.04.13.07.27.11.4.4,1.52.77,3.03,1.12,4.54.05.2.09.4.14.61.33,1.47.63,2.94.91,4.4.05.24.09.47.13.71.27,1.45.51,2.89.73,4.33.04.24.07.47.11.71.21,1.44.4,2.88.57,4.32.02.21.05.43.07.64.16,1.46.3,2.92.41,4.37.01.16.02.31.03.47.11,1.51.2,3.01.25,4.5,0,.05,0,.1,0,.16.05,1.5.08,3,.08,4.48,0,.09,0,.19,0,.28,0,1.45-.04,2.89-.09,4.32,0,.17-.01.35-.02.52-.06,1.38-.14,2.76-.25,4.13-.02.21-.03.42-.05.63-.11,1.34-.24,2.68-.4,4-.03.22-.05.44-.08.66-.16,1.32-.35,2.63-.55,3.93-.03.2-.07.4-.1.61-.22,1.32-.45,2.62-.71,3.91-.03.16-.07.32-.1.49-.28,1.33-.57,2.65-.89,3.96-.02.08-.04.17-.06.25-.33,1.33-.69,2.65-1.07,3.96-.01.04-.03.09-.04.13-.38,1.29-.79,2.57-1.22,3.83-.04.13-.09.27-.13.4-.42,1.21-.86,2.4-1.31,3.58-.07.17-.13.34-.2.52-.46,1.15-.93,2.28-1.43,3.4-.08.18-.16.37-.25.55-.5,1.11-1.02,2.2-1.56,3.28-.09.17-.18.35-.26.52-.55,1.08-1.12,2.15-1.71,3.2-.08.14-.16.29-.25.43-.61,1.07-1.24,2.13-1.9,3.16-.06.09-.12.18-.17.27-.69,1.08-1.39,2.14-2.13,3.17,0,0,0,0,0,0-.73,1.03-1.49,2.04-2.27,3.03-.07.08-.13.17-.2.26-.74.94-1.51,1.85-2.29,2.75-.11.12-.21.24-.32.36-.77.87-1.56,1.71-2.36,2.54-.13.13-.26.26-.39.4-.8.81-1.62,1.6-2.46,2.37-.14.13-.28.25-.42.38-.85.76-1.71,1.51-2.59,2.22-.13.11-.26.21-.4.32-.9.73-1.82,1.43-2.76,2.11-.1.07-.21.14-.31.22-.98.7-1.98,1.38-3,2.02-.03.02-.07.04-.1.06-1.03.65-2.08,1.26-3.14,1.85-.07.04-.14.08-.21.12-1.04.57-2.1,1.11-3.18,1.63-.13.06-.26.13-.4.19-1.05.49-2.11.95-3.19,1.39-.1.04-.19.09-.29.12l29.91-11.96c39.26-15.7,57.62-67.85,41.17-121.83Z" style="fill: #bc2c64;"/>
    <path d="m598.44,468.44c1.08-.52,2.14-1.05,3.18-1.63.07-.04.14-.08.21-.12,1.07-.59,2.11-1.21,3.14-1.85.03-.02.07-.04.1-.06,1.02-.64,2.02-1.32,3-2.02.1-.07.21-.14.31-.22.94-.68,1.86-1.38,2.76-2.11.13-.11.27-.21.4-.32.88-.72,1.74-1.46,2.59-2.22.14-.13.28-.25.42-.38.84-.77,1.66-1.56,2.46-2.37.13-.13.26-.26.39-.4.8-.83,1.59-1.67,2.36-2.54.11-.12.21-.24.32-.36.78-.9,1.55-1.81,2.29-2.75.07-.08.13-.17.2-.26.78-.99,1.53-2,2.27-3.03,0,0,0,0,0,0,.73-1.03,1.44-2.1,2.13-3.17.06-.09.12-.18.17-.27.65-1.03,1.28-2.09,1.9-3.16.08-.14.17-.28.25-.43.59-1.05,1.16-2.12,1.71-3.2.09-.17.18-.35.26-.52.54-1.08,1.06-2.17,1.56-3.28.08-.18.16-.37.25-.55.5-1.12.97-2.25,1.43-3.4.07-.17.13-.34.2-.52.46-1.18.9-2.37,1.31-3.58.05-.13.09-.27.13-.4.43-1.26.84-2.54,1.22-3.83.01-.04.03-.09.04-.13.38-1.3.74-2.62,1.07-3.96.02-.08.04-.17.06-.25.32-1.3.62-2.62.89-3.96.03-.16.07-.32.1-.49.26-1.29.5-2.6.71-3.91.03-.2.07-.4.1-.61.21-1.3.39-2.61.55-3.93.03-.22.05-.44.08-.66.15-1.32.29-2.66.4-4,.02-.21.03-.42.05-.63.1-1.37.19-2.74.25-4.13,0-.17.01-.35.02-.52.05-1.43.09-2.87.09-4.32,0-.09,0-.19,0-.28,0-1.49-.03-2.98-.08-4.48,0-.05,0-.1,0-.16-.06-1.49-.14-2.99-.25-4.5-.01-.16-.02-.31-.03-.47-.11-1.45-.25-2.91-.41-4.37-.02-.21-.05-.43-.07-.64-.16-1.43-.35-2.87-.57-4.32-.04-.24-.07-.47-.11-.71-.22-1.44-.46-2.88-.73-4.33-.04-.24-.09-.47-.13-.71-.28-1.46-.58-2.93-.91-4.4-.05-.2-.09-.4-.14-.61-.35-1.51-.72-3.02-1.12-4.54-.03-.13-.07-.27-.11-.4-.43-1.59-.88-3.18-1.36-4.78-13.67-44.83-47.34-77.79-82.88-85.34-10.39-2.21-20.93-2.25-31.18.22l-1.8.43c-.74.18-1.48.37-2.21.57-.24.07-.48.14-.72.21-.49.14-.97.28-1.45.43-.28.09-.57.19-.85.28-.43.14-.86.28-1.28.43-.3.11-.59.22-.89.33-.4.15-.81.3-1.21.46-39.5,15.54-58.01,67.83-41.51,121.96,13.67,44.84,47.33,77.79,82.87,85.35,10.39,2.21,20.94,2.24,31.19-.23l1.8-.43c3.2-.77,6.28-1.77,9.24-2.97,1.08-.44,2.14-.9,3.19-1.39.13-.06.26-.13.4-.19Z" style="fill: #d0306e;"/>
  </g>
</svg>