<!--<svg xmlns="http://www.w3.org/2000/svg" viewBox="0 0 471.4 537.6">-->
<svg xmlns="http://www.w3.org/2000/svg" viewBox="-170 -20 800 600">
  <title>Avatar</title>
  <path fill="#751d3d"
    d="M.2 394.8c-.2.7-.2 1.5-.2 2.3l5.7-20.9c-2.1 5.9-4 12.1-5.4 18.6Zm343.5 72.8L0 397.1c40 69.3 102.2 121.6 171.8 136.4 24.4 5.2 47.8 5.3 69.6 1.1 10-1.9 19.6-4.8 28.9-8.5 0 0-.2 0-.3.1l29.9-12c29.1-11.6 54.3-31.8 73.7-58.6l-29.9 12Z" />
  <path fill="none"
    d="M339.9 518.9c-1.3.7-2.6 1.3-4 2 1.3-.6 2.6-1.3 4-2Zm8.9-4.9c-1.3.8-2.5 1.5-3.8 2.2 1.3-.7 2.6-1.5 3.8-2.2Zm-4.8 2.7c-1 .6-2.1 1.1-3.1 1.7 1.1-.5 2.1-1.1 3.1-1.7Zm8.7-5.1c-1.1.7-2.1 1.3-3.2 2 1.1-.6 2.1-1.3 3.2-2Zm4.5-3c-1.2.8-2.3 1.6-3.5 2.3 1.2-.8 2.4-1.5 3.5-2.3Zm-22 12.6c-1.1.5-2.3 1-3.4 1.6 1.1-.5 2.3-1 3.4-1.6ZM212.9 14c-1.6-.2-3.3-.5-4.9-.7 1.6.2 3.3.4 4.9.7Zm117.8 509.2c-1.3.6-2.6 1.1-4 1.7 1.3-.5 2.7-1.1 4-1.7ZM218.6 14.9c-1.6-.3-3.2-.6-4.8-.8 1.6.2 3.2.5 4.8.8Zm161.7 474.7c-1 .9-1.9 1.9-2.9 2.8 1-.9 1.9-1.8 2.9-2.8Zm-19.2 16.3c-1.2.9-2.4 1.7-3.6 2.6 1.2-.8 2.4-1.7 3.6-2.6Zm22.9-20.1c-.9 1-1.9 1.9-2.8 2.9 1-1 1.9-1.9 2.8-2.9Zm-7 7-3.3 3 3.3-3Zm-4.3 3.8c-.9.8-1.8 1.6-2.8 2.4.9-.8 1.8-1.6 2.8-2.4ZM365 503c-1 .7-1.9 1.5-2.9 2.2 1-.7 2-1.5 2.9-2.2Zm4.2-3.4c-1.1.9-2.3 1.9-3.5 2.8 1.2-.9 2.3-1.8 3.5-2.8ZM191.3 12h-4.5 4.5Zm-41.4 4c-1.4.3-2.9.7-4.3 1 1.4-.4 2.8-.7 4.3-1Zm-5 1.2c-1.4.4-2.9.8-4.3 1.2 1.4-.4 2.8-.8 4.3-1.2Zm10.3-2.3c-1.5.3-2.9.6-4.4.9 1.5-.3 2.9-.6 4.4-.9Zm26.3-2.9h4.6-4.6Zm26.2 1.3c-1.6-.2-3.2-.4-4.7-.5 1.6.1 3.2.3 4.7.5Zm-72.3 6.8c-1.4.5-2.7.9-4.1 1.4 1.4-.5 2.7-1 4.1-1.4Zm5.1-1.6c-1.4.4-2.9.9-4.3 1.3 1.4-.5 2.9-.9 4.3-1.3Zm19.4-4.4c-1.4.2-2.9.5-4.3.8 1.4-.3 2.9-.5 4.3-.8Zm227.6 468c-1 1.1-2.1 2.3-3.1 3.4 1-1.1 2.1-2.2 3.1-3.4Zm-191-469.8c-1.6 0-3.2-.2-4.7-.2 1.6 0 3.2.1 4.7.2Zm5.7.4c-1.6-.1-3.1-.3-4.7-.4 1.6 0 3.1.2 4.7.4Zm-31.8 0c-1.5.1-3 .3-4.5.5 1.5-.2 3-.4 4.5-.5Zm-5.4.6c-1.5.2-3 .4-4.4.6 1.5-.2 2.9-.4 4.4-.6Zm10.3-1c-1.5 0-2.9.2-4.4.3 1.5-.1 2.9-.2 4.4-.3Zm5.2-.2c-1.5 0-3.1.1-4.6.2 1.5 0 3.1-.2 4.6-.2Zm44.1 4c-1.7-.4-3.4-.7-5-1 1.7.3 3.4.6 5 1Zm216.6 337.2c-.2 1.6-.3 3.2-.5 4.8.2-1.6.4-3.2.5-4.8Zm-1.5 11.9-.9 5.4.9-5.4Zm.8-5.5c-.2 1.7-.4 3.4-.7 5.1.2-1.7.5-3.4.7-5.1Zm-2.9 17.9c-.3 1.8-.7 3.5-1.1 5.3.4-1.7.7-3.5 1.1-5.3Zm1-5.5c-.3 1.5-.5 2.9-.8 4.4.3-1.4.5-2.9.8-4.4Zm-5.1 23.2c-.4 1.5-.8 3.1-1.3 4.6.4-1.5.9-3 1.3-4.6Zm1.4-5.7c-.4 1.7-.9 3.4-1.3 5.1.5-1.7.9-3.4 1.3-5.1Zm1.3-5.6c-.3 1.4-.6 2.8-1 4.2.3-1.4.7-2.8 1-4.2Zm-45.4 94.4c-.8.9-1.6 1.9-2.4 2.8.8-.9 1.6-1.9 2.4-2.8Zm41-77.2c-.4 1.5-.9 2.9-1.3 4.3.5-1.4.9-2.9 1.3-4.3Zm10-54.4c-.2 1.9-.3 3.8-.5 5.6.2-1.9.4-3.7.5-5.6Zm1-26.7v5.9-5.9Zm-.6 20.7c0 1.5-.2 3.1-.3 4.6.1-1.5.2-3 .3-4.6Zm.4-7.1c0 1.9-.2 3.8-.3 5.7l.3-5.7Zm.1-6c0 1.6 0 3.2-.1 4.9 0-1.6 0-3.2.1-4.9Zm-27.8 115c-.8 1.4-1.5 2.8-2.3 4.2.8-1.4 1.6-2.8 2.3-4.2Zm-5.4 9.7c-.8 1.4-1.7 2.7-2.5 4.1.8-1.3 1.7-2.7 2.5-4.1ZM394.4 474c-1 1.2-1.9 2.4-2.9 3.5 1-1.2 2-2.4 2.9-3.5Zm17.6-26c-.6 1.1-1.3 2.2-1.9 3.3.7-1.1 1.3-2.2 1.9-3.3Zm-5.5 9.1c-.7 1.1-1.5 2.3-2.2 3.4.7-1.1 1.5-2.2 2.2-3.4Zm-9.2 13.2c-.8 1-1.6 2-2.3 3 .8-1 1.6-2 2.3-3Zm3.6-4.8c-.9 1.3-1.8 2.5-2.8 3.8.9-1.2 1.9-2.5 2.8-3.8Zm2.7-3.9c-.8 1.2-1.7 2.5-2.5 3.7.9-1.2 1.7-2.4 2.5-3.7Zm24.6-49.2c-.5 1.3-.9 2.6-1.4 3.9.5-1.3.9-2.6 1.4-3.9Zm-1.8 5c-.6 1.6-1.2 3.1-1.8 4.7.6-1.5 1.2-3.1 1.8-4.7Zm-9.2 20.9c-.6 1.2-1.2 2.4-1.9 3.7.6-1.2 1.3-2.4 1.9-3.7Zm13-32c-.5 1.6-1.1 3.3-1.6 4.9.6-1.6 1.1-3.2 1.6-4.9Zm-6 16.7c-.5 1.3-1.1 2.5-1.6 3.8.5-1.3 1.1-2.5 1.6-3.8Zm-2.2 5.1c-.7 1.5-1.3 3-2 4.5.7-1.5 1.4-3 2-4.5Zm-2.1 4.6c-.7 1.5-1.4 2.9-2.1 4.3.7-1.4 1.4-2.9 2.1-4.3Z" />
  <path fill="#689dbf"
    d="m254 4.3.5-.2c-35.4-7.5-68.8-4.5-98.2 7.3l-29.9 12c1.4-.6 2.8-1.1 4.2-1.6.3 0 .5-.2.8-.3 1.4-.5 2.7-1 4.1-1.4.3 0 .5-.2.8-.3 1.4-.5 2.9-.9 4.3-1.3h.2c1.4-.4 2.8-.8 4.3-1.2.2 0 .5-.1.7-.2 1.4-.4 2.8-.7 4.3-1 .3 0 .6-.1.9-.2 1.5-.3 2.9-.6 4.4-.9h.4c1.4-.3 2.9-.5 4.3-.8.2 0 .5 0 .7-.1 1.5-.2 2.9-.4 4.4-.6.3 0 .6 0 .9-.1 1.5-.2 3-.4 4.5-.5h.5c1.5-.1 2.9-.2 4.4-.3h.6c1.5 0 3.1-.2 4.6-.2h11.2c1.6 0 3.2.1 4.7.2h.9c1.6 0 3.1.2 4.7.4h.8c1.6.1 3.2.3 4.7.5h.3c1.6.2 3.3.4 4.9.7.3 0 .6 0 .9.1 1.6.2 3.2.5 4.8.8.3 0 .6.1.9.2 1.4.3 2.8.5 4.2.8l-.4.2c119.5 25.4 217.2 161.5 218.2 304.1v7.5c0 1.6 0 3.2-.1 4.9v1.1c0 1.9-.2 3.8-.3 5.7v1.4c0 1.5-.2 3.1-.3 4.6 0 .5 0 1-.1 1.5-.2 1.9-.3 3.8-.5 5.6v.9c-.2 1.6-.3 3.2-.5 4.8 0 .5-.1 1-.2 1.5-.2 1.7-.4 3.4-.7 5.1v.5l-.9 5.4c0 .5-.2 1-.3 1.5-.3 1.5-.5 2.9-.8 4.4 0 .4-.1.8-.2 1.2-.3 1.8-.7 3.5-1.1 5.3 0 .4-.2.8-.3 1.2-.3 1.4-.6 2.8-1 4.2-.1.5-.2.9-.3 1.4-.4 1.7-.9 3.4-1.3 5.1 0 .2 0 .4-.1.5-.4 1.5-.8 3.1-1.3 4.6-.1.5-.3.9-.4 1.4-.4 1.5-.9 2.9-1.3 4.3 0 .2-.1.5-.2.7-.5 1.6-1.1 3.3-1.6 4.9-.1.4-.3.8-.4 1.3-.5 1.3-.9 2.6-1.4 3.9-.1.4-.3.8-.4 1.1-.6 1.6-1.2 3.1-1.8 4.7-.1.3-.3.6-.4.9-.5 1.3-1.1 2.5-1.6 3.8-.2.4-.4.8-.5 1.3-.7 1.5-1.3 3-2 4.5v.1c-.7 1.5-1.4 2.9-2.1 4.3l-.6 1.2c-.6 1.2-1.2 2.4-1.9 3.7-.1.3-.3.5-.4.8-.8 1.4-1.5 2.8-2.3 4.2-.2.3-.4.7-.6 1-.6 1.1-1.3 2.2-1.9 3.3-.2.3-.4.7-.6 1-.8 1.4-1.7 2.7-2.5 4.1-.1.2-.3.5-.4.7-.7 1.1-1.5 2.3-2.2 3.4-.2.4-.5.7-.7 1.1-.8 1.2-1.7 2.5-2.5 3.7 0 0-.1.2-.2.2-.9 1.3-1.8 2.5-2.8 3.8-.3.3-.5.7-.8 1-.8 1-1.6 2-2.3 3-.2.3-.4.5-.6.8-1 1.2-1.9 2.4-2.9 3.5-.2.3-.5.5-.7.8-.8.9-1.6 1.9-2.4 2.8-.3.3-.5.6-.8.9-1 1.1-2.1 2.3-3.1 3.4l-.4.4c-.9 1-1.9 1.9-2.8 2.9l-.9.9c-1 .9-1.9 1.9-2.9 2.8l-.4.4-3.3 3c-.3.3-.6.5-.9.8-.9.8-1.8 1.6-2.8 2.4-.3.2-.5.4-.8.7-1.1.9-2.3 1.9-3.5 2.8-.2.2-.5.4-.7.6-1 .7-1.9 1.5-2.9 2.2-.3.2-.6.5-1 .7-1.2.9-2.4 1.7-3.6 2.6 0 0-.1 0-.2.1-1.2.8-2.3 1.6-3.5 2.3-.3.2-.7.4-1 .7-1.1.7-2.1 1.3-3.2 2-.2.1-.4.3-.6.4-1.3.8-2.5 1.5-3.8 2.2-.3.2-.7.4-1 .5-1 .6-2.1 1.1-3.1 1.7-.3.2-.7.3-1 .5-1.3.7-2.6 1.3-4 2-.2.1-.5.2-.7.3-1.1.5-2.3 1-3.4 1.6-.4.2-.7.3-1.1.5-1.3.6-2.6 1.1-4 1.7h-.1l29.9-12c69.7-27.9 117-104.6 116.2-204.8-1-142.2-98.3-278-217.4-303.9Z" />
  <path fill="#72add3"
    d="M224.6 16.1c-1.7-.4-3.4-.7-5-1-.3 0-.6-.1-.9-.2-1.6-.3-3.2-.6-4.8-.8-.3 0-.6 0-.9-.1-1.6-.2-3.3-.5-4.9-.7h-.3c-1.6-.2-3.2-.4-4.7-.5h-.8c-1.6-.1-3.1-.3-4.7-.4h-.9c-1.6 0-3.2-.2-4.7-.2h-11.2c-1.5 0-3.1.1-4.6.2h-.6c-1.5 0-2.9.2-4.4.3h-.5c-1.5.1-3 .3-4.5.5-.3 0-.6 0-.9.1-1.5.2-3 .4-4.4.6-.2 0-.5 0-.7.1-1.4.2-2.9.5-4.3.8h-.4c-1.5.3-2.9.6-4.4.9-.3 0-.6.1-.9.2-1.4.3-2.9.7-4.3 1-.2 0-.5.1-.7.2-1.4.4-2.9.8-4.3 1.2h-.2c-1.4.4-2.9.9-4.3 1.3-.3 0-.5.2-.8.3-1.4.5-2.7.9-4.1 1.4-.3 0-.5.2-.8.3C58.5 48.2 9.4 126 10.1 228.2c.3 36.7 7 73 18.8 107.1 11.8-14 26.4-24.7 42.8-31.2-.2 0-.3.1-.5.2l29.9-12c3.8-1.5 7.7-2.8 11.8-3.9 24.1 19.7 55 31.6 88.6 31.6s38.2-4 55.2-11.3c56.2 21.2 102.1 79.8 117 146.9-19.4 26.8-44.6 46.9-73.7 58.6l-29.9 12s.2 0 .3-.1c-9.2 3.7-18.9 6.6-28.9 8.5 30.6 4.3 59.4.7 85.2-9.6h.1c1.3-.5 2.7-1.1 4-1.7.4-.2.7-.3 1.1-.5 1.1-.5 2.3-1 3.4-1.6.2-.1.5-.2.7-.3 1.3-.6 2.6-1.3 4-2 .3-.2.7-.3 1-.5 1.1-.5 2.1-1.1 3.1-1.7.3-.2.7-.4 1-.5 1.3-.7 2.6-1.5 3.8-2.2.2-.1.4-.3.6-.4 1.1-.6 2.1-1.3 3.2-2 .3-.2.7-.4 1-.7 1.2-.8 2.4-1.5 3.5-2.3 0 0 .1 0 .2-.1 1.2-.8 2.4-1.7 3.6-2.6.3-.2.7-.5 1-.7 1-.7 2-1.5 2.9-2.2.2-.2.5-.4.7-.6 1.2-.9 2.3-1.8 3.5-2.8.3-.2.5-.4.8-.7.9-.8 1.8-1.6 2.8-2.4.3-.3.6-.5.9-.8l3.3-3 .4-.4c1-.9 1.9-1.8 2.9-2.8l.9-.9c1-1 1.9-1.9 2.8-2.9l.4-.4c1-1.1 2.1-2.2 3.1-3.4.3-.3.5-.6.8-.9.8-.9 1.6-1.9 2.4-2.8.2-.3.5-.5.7-.8 1-1.2 2-2.4 2.9-3.5.2-.3.4-.5.6-.8.8-1 1.6-2 2.3-3 .3-.3.5-.7.8-1 .9-1.2 1.9-2.5 2.8-3.8 0 0 .1-.2.2-.2.9-1.2 1.7-2.4 2.5-3.7.2-.4.5-.7.7-1.1.7-1.1 1.5-2.2 2.2-3.4.1-.2.3-.5.4-.7.8-1.3 1.7-2.7 2.5-4.1.2-.3.4-.7.6-1 .7-1.1 1.3-2.2 1.9-3.3.2-.3.4-.7.6-1 .8-1.4 1.6-2.8 2.3-4.2.1-.3.3-.5.4-.8.6-1.2 1.3-2.4 1.9-3.7l.6-1.2c.7-1.4 1.4-2.9 2.1-4.3v-.1c.7-1.5 1.4-3 2-4.5.2-.4.4-.8.5-1.3.5-1.3 1.1-2.5 1.6-3.8.1-.3.3-.6.4-.9.6-1.5 1.2-3.1 1.8-4.7.1-.4.3-.8.4-1.1.5-1.3.9-2.6 1.4-3.9.1-.4.3-.8.4-1.3.6-1.6 1.1-3.2 1.6-4.9 0-.2.1-.5.2-.7.5-1.4.9-2.9 1.3-4.3.1-.5.3-.9.4-1.4.4-1.5.9-3 1.3-4.6 0-.2 0-.4.1-.5.5-1.7.9-3.4 1.3-5.1.1-.5.2-.9.3-1.4.3-1.4.7-2.8 1-4.2 0-.4.2-.8.3-1.2.4-1.7.7-3.5 1.1-5.3 0-.4.1-.8.2-1.2.3-1.4.5-2.9.8-4.4 0-.5.2-1 .3-1.5l.9-5.4v-.5c.2-1.7.5-3.4.7-5.1 0-.5.1-1 .2-1.5.2-1.6.4-3.2.5-4.8v-.9c.2-1.9.4-3.7.5-5.6 0-.5 0-1 .1-1.5.1-1.5.2-3 .3-4.6V339l.3-5.7v-1.1c0-1.6 0-3.2.1-4.9v-7.5c-1-142.5-98.7-278.7-218.2-304.1Z" />
  <path fill="#bc2c64"
    d="M292.8 169.6c-8-42.8-35.3-80.9-69.9-97.4-7.2-3.5-14.4-5.9-21.3-7.4-15.2-3.2-29.6-1.9-42.2 3.1l-29.9 12c.3-.1.5-.2.8-.3-36.2 14-58.6 58.3-48.2 114.3 7.1 38 29.4 72.3 58.5 91.1 3.7 2.4 7.5 4.5 11.4 6.4.6.3 1.1.5 1.7.8 6.7 3 13.3 5.2 19.7 6.6 13.3 2.8 25.8 2.2 37.2-1.4 1.8-.6 3.5-1.2 5.2-1.9h-.2l29.9-12c35.7-14.3 57.7-58.4 47.4-114Z" />
  <path fill="#d0306e"
    d="M265.4 206.3c0-1.4 0-2.9-.1-4.3v-.5c0-1.3-.2-2.6-.3-3.9v-1.1c-.1-1.5-.3-3-.4-4.5v-.3l-.6-4.2c0-.4-.1-.8-.2-1.2-.2-1.5-.5-3.1-.8-4.6-8-42.8-35.3-80.9-69.9-97.4-7.2-3.5-14.4-5.9-21.3-7.4-.9-.2-1.9-.4-2.8-.5-.3 0-.6 0-.9-.1l-1.8-.3c-.4 0-.7 0-1.1-.1-.5 0-1.1-.1-1.6-.2-.4 0-.8 0-1.2-.1-.5 0-1 0-1.6-.1h-10.6c-.4 0-.8 0-1.2.1-.5 0-.9 0-1.4.1-.4 0-.8 0-1.2.1-.5 0-.9.1-1.4.2-.4 0-.8.1-1.2.2-.4 0-.9.2-1.3.2s-.8.1-1.2.2c-.4 0-.9.2-1.3.3-.4 0-.8.2-1.2.3-.4.1-.9.2-1.3.3-.4 0-.8.2-1.1.3-.4.1-.9.2-1.3.4-.4.1-.7.2-1.1.3-.4.1-.9.3-1.3.4-.4.1-.7.2-1.1.4-.4.2-.8.3-1.3.5-36.2 14-58.6 58.3-48.2 114.3 7.1 38 29.4 72.3 58.5 91.1 3.7 2.4 7.5 4.5 11.4 6.4.6.3 1.1.5 1.7.8 6.7 3 13.3 5.2 19.7 6.6 13.3 2.8 25.8 2.2 37.2-1.4 1.8-.6 3.5-1.2 5.2-1.9 1-.4 1.9-.8 2.9-1.3.2 0 .4-.2.6-.3l2.4-1.2c.2-.1.5-.2.7-.4.9-.5 1.8-1 2.8-1.5.2 0 .3-.2.5-.3.8-.5 1.5-1 2.3-1.5.2-.1.4-.3.7-.4.9-.6 1.7-1.2 2.6-1.8.1 0 .2-.2.4-.3.8-.6 1.5-1.2 2.2-1.8.2-.2.4-.3.6-.5l2.4-2.1s.2-.1.2-.2l2.1-2.1.6-.6c.8-.8 1.5-1.6 2.3-2.4l2.1-2.4c.2-.2.4-.4.5-.7.7-.8 1.3-1.7 2-2.6v-.1c.7-.9 1.3-1.8 1.9-2.8.2-.2.3-.5.5-.7.6-.9 1.1-1.7 1.7-2.6 0 0 .1-.2.2-.3.6-1 1.2-2 1.7-3 .1-.3.3-.5.4-.8.5-.9 1-1.8 1.4-2.7 0-.2.2-.3.2-.5.5-1.1 1-2.1 1.5-3.2.1-.3.2-.5.4-.8.4-.9.8-1.9 1.2-2.8 0-.2.2-.4.2-.6.4-1.1.8-2.3 1.2-3.4 0-.3.2-.6.3-.8.3-1 .6-2 1-3 0-.2.1-.5.2-.7.4-1.2.7-2.4 1-3.6 0-.3.1-.6.2-.8.3-1 .5-2.1.7-3.1 0-.3.1-.5.2-.8.3-1.2.5-2.5.7-3.8 0-.3 0-.5.1-.8.2-1.1.3-2.2.5-3.3 0-.3 0-.6.1-.9.2-1.3.3-2.6.5-4v-.8c.1-1.1.2-2.3.3-3.5v-1c0-1.4.1-2.7.2-4.1v-5.5Z" />
  <path fill="#bc2c64"
    d="m237.2 303-26.8-5.7c-11.4 3.5-24 4.2-37.2 1.4-6.4-1.4-13-3.5-19.7-6.6-.6-.3-1.1-.5-1.7-.8-3.9-1.9-7.7-4-11.4-6.4-14 0-27.2 2.5-39.4 7.4l-29.9 12c.2 0 .3-.1.5-.2-16.4 6.5-31 17.1-42.8 31.2-9.7 11.5-17.6 25.3-23.2 40.9L0 397.1l343.7 70.5 29.9-12C357 380.9 302.1 316.7 237.2 303Z" />
  <path fill="#d0306e"
    d="M329.1 423.7c-.5-1.1-1-2.1-1.5-3.2-1.5-3.2-3.1-6.4-4.7-9.5-1.1-2.1-2.2-4.1-3.4-6.2-.6-1-1.2-2-1.7-3l-3.6-6c-1.9-2.9-3.8-5.8-5.8-8.7-1.3-1.9-2.7-3.7-4-5.6l-2.1-2.7c-1.4-1.8-2.8-3.6-4.3-5.3-2.2-2.6-4.4-5.2-6.7-7.7-1.5-1.7-3.1-3.3-4.6-4.9-7.8-8-16.2-15.2-25-21.5-1.8-1.3-3.5-2.5-5.3-3.7-15.3-10-31.8-17.2-49-20.9l-72.5-15.4c-1.3-.3-2.6-.5-3.8-.7-.4 0-.7-.1-1.1-.2-1-.2-2.1-.3-3.1-.5-.3 0-.5 0-.8-.1-1.2-.2-2.5-.3-3.7-.5h-.9c-1 0-2-.2-3-.3h-1c-1.2 0-2.5-.1-3.7-.2h-8.4c-1.2 0-2.4.1-3.6.2h-.9c-.9 0-1.9.2-2.8.3h-.9c-1.2.1-2.3.3-3.5.5-.2 0-.5 0-.7.1-1 .2-1.9.3-2.8.5-.3 0-.6.1-1 .2-1.1.2-2.3.5-3.4.7-1.1.3-2.2.6-3.4.9-.3 0-.6.2-.9.3-.9.3-1.8.5-2.7.8-.2 0-.5.1-.7.2-1.1.3-2.2.7-3.2 1.1-.3 0-.5.2-.8.3-.9.3-1.7.6-2.6 1-16.4 6.5-31 17.1-42.8 31.2C15.3 351.1 5.4 371.3.1 394.7c-.2.7-.2 1.5-.2 2.3 40 69.3 102.2 121.6 171.8 136.4 24.4 5.2 47.8 5.3 69.6 1.1 10-1.9 19.6-4.8 28.9-8.5 1.7-.7 3.3-1.4 5-2.1.1 0 .3-.1.4-.2 1.7-.7 3.3-1.5 4.9-2.3.1 0 .3-.1.4-.2 1.6-.8 3.2-1.6 4.8-2.5.1 0 .2-.1.4-.2l4.8-2.7c.1 0 .2-.1.3-.2 1.6-.9 3.1-1.9 4.7-2.9.1 0 .2-.1.3-.2 1.6-1 3.1-2 4.6-3 0 0 .2-.1.3-.2 1.5-1.1 3-2.1 4.5-3.2 0 0 .2-.1.2-.2 1.5-1.1 3-2.2 4.4-3.4l.2-.2c1.5-1.2 2.9-2.4 4.4-3.6l.2-.2c1.4-1.2 2.9-2.5 4.3-3.8l.2-.2c1.4-1.3 2.8-2.6 4.2-4l.1-.1c1.4-1.4 2.7-2.7 4.1-4.2l.1-.1c1.4-1.4 2.7-2.9 4-4.4l3.9-4.5c1.3-1.6 2.6-3.1 3.8-4.7 1.3-1.6 2.5-3.3 3.7-4.9-3.4-15.2-8.3-29.9-14.6-43.9Z" />
</svg>