<?xml version="1.0" encoding="UTF-8"?>
<svg xmlns="http://www.w3.org/2000/svg" viewBox="0 0 1599.55 600" width="1600" height="600">
  <polygon style="fill: oklch(from var(--col-accent2) calc(l - 0.2) c h);"
    points="288.9 575.74 257.51 563.19 104.05 481.61 135.44 494.16 288.9 575.74" />
  <polygon style="fill: oklch(from var(--col-accent2) calc(l - 0.2) c h);"
    points="135.44 494.16 104.05 481.61 104.43 428.68 135.82 441.23 135.44 494.16" />
  <polygon style="fill: oklch(from var(--col-accent2) calc(l - 0.1) c h);"
    points="135.82 441.23 104.43 428.68 260.56 280.84 291.95 293.39 135.82 441.23" />
  <polygon style="fill: var(--col-accent2)"
    points="291.95 293.39 318.9 339.09 189.71 455.97 317.61 516.55 288.9 575.74 135.44 494.16 135.82 441.23 291.95 293.39" />
  <polygon style="fill: oklch(from var(--col-accent) calc(l - 0.2) c h);"
    points="372.43 565.29 341.04 552.74 343.59 202.08 374.98 214.63 372.43 565.29" />
  <path style="fill: oklch(from var(--col-accent) calc(l - 0.2) c h);"
    d="M491.54,352.64c-1.21-5.56-3.26-9.33-6.14-11.31-.33-.23-.69-.43-1.05-.62-.12-.06-.24-.11-.36-.17-2.74-1.28-6.29-1.47-10.65-.54-4.16.89-8.25,2.88-12.26,5.97.56,4.84.82,10.76.77,17.83l-1.19,163.52,31.39,12.55,1.19-163.52c.07-10.24-.5-18.14-1.71-23.7Z" />
  <path style="fill: oklch(from var(--col-accent) calc(l - 0.1) c h);"
    d="M498.7,279.64c1.04-.22,2.06-.41,3.07-.59.21-.04.42-.07.64-.11.98-.16,1.95-.3,2.9-.42.16-.02.33-.04.49-.05.88-.1,1.75-.18,2.6-.25.14-.01.29-.02.43-.03.92-.06,1.83-.1,2.73-.12.2,0,.39,0,.59,0,.91,0,1.8,0,2.69.04.04,0,.09,0,.13,0,.85.04,1.68.1,2.51.18.17.02.35.03.52.05.83.09,1.65.2,2.46.34.15.03.3.05.45.08.75.13,1.48.28,2.21.46.1.02.21.04.31.07.78.19,1.54.41,2.29.64.17.05.33.11.5.16.73.24,1.44.49,2.14.77l-31.39-12.55c-8.2-3.28-18.08-3.69-29.66-1.23-10.72,2.28-20.82,6.7-30.32,13.24l-.33,45.53c17.72-25.79,38.4-41.2,62.04-46.22Z" />
  <polygon style="fill: oklch(from var(--col-accent) calc(l - 0.1) c h);"
    points="406.23 181.45 343.59 202.08 374.98 214.63 437.62 194 406.23 181.45" />
  <path style="fill: var(--col-accent)"
    d="M541.44,290.02c-4.26-4.69-9.34-8-15.22-9.93-.16-.05-.33-.11-.5-.16-.75-.24-1.52-.45-2.29-.64-.1-.03-.21-.05-.31-.07-.72-.17-1.46-.32-2.21-.46-.15-.03-.3-.06-.45-.08-.81-.13-1.62-.25-2.46-.34-.17-.02-.35-.03-.52-.05-.83-.08-1.66-.15-2.51-.18-.04,0-.09,0-.13,0-.88-.04-1.78-.04-2.69-.04-.2,0-.39,0-.59,0-.9.02-1.81.05-2.73.12-.14,0-.28.02-.43.03-.86.06-1.73.15-2.6.25-.16.02-.33.03-.49.05-.95.12-1.92.26-2.9.42-.21.03-.42.07-.64.11-1.01.17-2.03.36-3.07.59-23.64,5.02-44.32,20.43-62.04,46.22l.33-45.53.63-86.33-62.64,20.63-2.55,350.66,62.59-13.3,1.26-173.67c6.41-11.28,12.61-20.14,18.59-26.6,2.05-2.22,4.13-4.13,6.22-5.74,4.01-3.09,8.09-5.09,12.26-5.97,4.36-.93,7.91-.74,10.65.54.12.06.24.11.36.17.36.19.72.39,1.05.62,2.88,1.98,4.93,5.76,6.14,11.31,1.21,5.56,1.78,13.47,1.71,23.7l-1.19,163.52,62.59-13.3,1.34-184.31c.17-23.94-4.68-41.36-14.55-52.23Z" />
  <path style="fill: oklch(from var(--col-accent) calc(l - 0.1) c h);"
    d="M1202.63,331.38c1.12.84,2.35,1.52,3.7,2.05.47.18.95.35,1.45.5.11.03.22.06.33.09.44.12.9.23,1.37.33.1.02.19.04.28.06.54.1,1.09.18,1.65.24.13.01.26.03.39.04.52.05,1.04.08,1.58.1.08,0,.16,0,.25.01.6.02,1.22,0,1.85-.02.15,0,.3-.01.45-.02.6-.03,1.21-.07,1.84-.14.06,0,.11,0,.17-.01.67-.07,1.36-.17,2.06-.27.17-.03.34-.05.51-.08.71-.12,1.43-.25,2.18-.41,9.5-2.02,19.43-6.64,29.76-13.88l-31.39-12.55c-8.49,5.94-16.7,10.12-24.63,12.54.98,5.24,3.05,9.05,6.2,11.42Z" />
  <path style="fill: oklch(from var(--col-accent) calc(l - 0.2) c h);"
    d="M1167.53,394.55c-.27-.11-.53-.23-.79-.34-.69-.3-1.38-.62-2.05-.95-.3-.15-.6-.3-.9-.46-.68-.36-1.34-.74-2-1.13-.22-.14-.45-.26-.68-.4-.86-.54-1.7-1.1-2.51-1.7-.17-.12-.33-.26-.49-.38-.65-.49-1.29-1-1.91-1.54-.25-.22-.5-.44-.75-.66-.55-.49-1.09-1-1.62-1.53-.22-.22-.45-.44-.67-.67-.72-.75-1.43-1.52-2.12-2.33-12.1-14.34-18.03-36.63-17.81-66.88l1.54-211.49-31.53,6.7-1.4,192.24c-.22,30.25,5.71,52.54,17.81,66.88,4.66,5.53,10.26,9.61,16.8,12.22l31.39,12.55c-.11-.04-.21-.09-.31-.14Z" />
  <polygon style="fill: oklch(from var(--col-accent) calc(l - 0.2) c h);"
    points="1041.76 53.68 1041.39 104.72 1072.78 117.27 1073.15 66.23 1041.76 53.68" />
  <polygon style="fill: oklch(from var(--col-accent) calc(l - 0.1) c h);"
    points="1197.73 39.75 1166.34 27.2 1041.76 53.68 1073.15 66.23 1197.73 39.75" />
  <path style="fill: var(--col-accent)"
    d="M1252.45,319.97c-10.34,7.24-20.26,11.86-29.76,13.88-.74.16-1.46.29-2.18.41-.17.03-.34.06-.51.08-.7.11-1.39.2-2.06.27-.06,0-.11,0-.17.01-.63.06-1.24.11-1.84.14-.15,0-.3.02-.45.02-.63.02-1.25.03-1.85.02-.08,0-.16,0-.25-.01-.54-.02-1.06-.05-1.58-.1-.13-.01-.26-.02-.39-.04-.56-.06-1.12-.14-1.65-.24-.1-.02-.19-.04-.28-.06-.47-.09-.92-.2-1.37-.33-.11-.03-.22-.06-.33-.09-.5-.15-.98-.31-1.45-.5-1.35-.53-2.59-1.21-3.7-2.05-3.16-2.37-5.22-6.18-6.2-11.42-.47-2.5-.69-5.32-.67-8.47l1.98-271.74-124.58,26.48-.37,51.03,30.46-6.47,31.53-6.7-1.54,211.49c-.22,30.25,5.71,52.54,17.81,66.88.68.81,1.39,1.58,2.12,2.33.22.23.45.45.67.67.53.52,1.07,1.03,1.62,1.53.25.22.5.44.75.66.62.53,1.26,1.04,1.91,1.54.17.13.33.26.49.38.82.6,1.66,1.17,2.51,1.7.22.14.45.27.68.4.66.39,1.32.77,2,1.13.3.16.59.31.9.46.67.33,1.36.65,2.05.95.26.11.52.24.79.34,10.47,4.28,23.36,4.8,38.68,1.54,22.97-4.88,43.28-14.71,60.92-29.46l-14.69-46.66Z" />
  <path style="fill: oklch(from var(--col-accent) calc(l - 0.2) c h);"
    d="M992.8,237.73c-.18-.41-.39-.79-.61-1.13-.08-.12-.17-.21-.25-.31-.16-.21-.31-.43-.49-.62-.11-.11-.23-.2-.34-.3-.17-.15-.34-.31-.52-.44-.13-.09-.28-.16-.42-.23-.19-.11-.37-.22-.58-.3-1.37-.57-3.06-.64-5.07-.22-3.56.76-7.11,2.74-10.63,5.92-1.62,1.47-3.29,3.34-5.01,5.58-1.78,2.31-3.61,5.04-5.51,8.17l-1.21,166.88,31.39,12.55,1.29-177.22c.07-8.98-.62-15.08-2.04-18.32Z" />
  <path style="fill: oklch(from var(--col-accent) calc(l - 0.1) c h);"
    d="M995.19,160.3c-5.9-2.36-13.04-2.65-21.43-.87-13.27,2.82-25.89,11.92-37.88,27.26l7.01,2.8s-.07-.02-.1-.03c1.47.58,2.86,1.31,4.18,2.21,5.44,3.72,9.32,10.37,11.63,19.94,14.53-22.9,30.05-36.11,46.56-39.62,1-.21,1.98-.39,2.94-.54.32-.05.62-.08.93-.13.64-.09,1.28-.18,1.9-.24.36-.04.72-.06,1.07-.09.56-.04,1.11-.08,1.66-.11.37-.01.73-.02,1.1-.02.52,0,1.03,0,1.54,0,.36,0,.72.03,1.08.05.49.03.98.07,1.46.11.35.03.69.07,1.03.12.48.06.95.14,1.41.23.32.06.65.11.96.18.48.1.94.23,1.41.35.29.08.58.15.86.23.52.16,1.02.34,1.52.53.18.07.38.12.56.19l-31.39-12.55Z" />
  <path style="fill: oklch(from var(--col-accent) calc(l - 0.2) c h);"
    d="M916.55,253.93c-.18-.41-.39-.79-.61-1.13-.08-.12-.17-.21-.25-.32-.16-.21-.31-.43-.49-.62-.11-.11-.23-.2-.34-.3-.17-.15-.34-.31-.52-.44-.13-.09-.28-.16-.42-.23-.19-.11-.37-.22-.57-.3-1.37-.57-3.06-.64-5.07-.21-3.56.76-7.11,2.74-10.62,5.92-1.62,1.47-3.29,3.34-5.02,5.57-1.78,2.31-3.61,5.04-5.5,8.17l-1.21,166.88,31.39,12.55,1.29-177.22c.07-8.98-.62-15.08-2.04-18.32Z" />
  <path style="fill: oklch(from var(--col-accent) calc(l - 0.1) c h);"
    d="M882.3,230.66c6.94-12.63,13.81-22.31,20.58-29.03,6.77-6.7,14.65-11.02,23.63-12.93.7-.15,1.38-.27,2.05-.38.16-.03.32-.05.48-.08.67-.1,1.33-.18,1.97-.24.05,0,.1,0,.15-.01.61-.05,1.2-.08,1.79-.1.15,0,.3,0,.44-.01.52,0,1.04,0,1.55.01.31-.4.61-.8.92-1.19l-24.38-9.75c-4.65-1.86-10.11-2.13-16.37-.8-8.98,1.91-16.86,6.22-23.63,12.93-3.2,3.18-6.43,7.02-9.67,11.53l16.5,6.6,3.98,23.45Z" />
  <path style="fill: oklch(from var(--col-accent) calc(l - 0.1) c h);"
    d="M935.24,187.9c.08,0,.16.01.24.02.54.03,1.07.08,1.59.14.13.02.27.03.4.05.57.08,1.14.17,1.69.28.09.02.19.04.28.06.49.11.96.23,1.43.37.12.03.24.07.35.1.53.16,1.05.34,1.56.54.03.01.07.02.1.03l-7.01-2.8c-.31.39-.61.79-.92,1.19.09,0,.19,0,.28.01Z" />
  <polygon style="fill: oklch(from var(--col-accent) calc(l - 0.1) c h);"
    points="861.82 200.61 846.93 194.65 800.98 204.42 832.37 216.97 854.21 212.33 878.32 207.2 861.82 200.61" />
  <path style="fill: var(--col-accent)"
    d="M1038.29,182.4c-3.24-4.66-7.34-7.9-12.27-9.74-.5-.19-1-.37-1.52-.53-.28-.09-.57-.15-.86-.23-.46-.13-.93-.25-1.41-.35-.32-.07-.64-.12-.96-.18-.47-.08-.94-.16-1.41-.23-.34-.04-.68-.08-1.03-.12-.48-.05-.97-.09-1.46-.11-.36-.02-.71-.04-1.08-.05-.51-.01-1.02-.01-1.54,0-.36,0-.73,0-1.1.02-.55.02-1.1.06-1.66.11-.36.03-.71.05-1.07.09-.62.06-1.26.15-1.9.24-.31.04-.62.08-.93.13-.96.15-1.94.33-2.94.54-16.51,3.51-32.03,16.72-46.56,39.62-2.31-9.57-6.18-16.22-11.63-19.94-1.31-.9-2.7-1.63-4.18-2.21-.51-.2-1.03-.38-1.56-.54-.12-.04-.23-.07-.35-.1-.47-.14-.95-.26-1.43-.37-.09-.02-.19-.04-.28-.06-.55-.11-1.12-.21-1.69-.28-.13-.02-.27-.03-.4-.05-.52-.06-1.05-.11-1.59-.14-.08,0-.16-.01-.24-.02-.09,0-.19,0-.29,0-.51-.02-1.02-.03-1.54-.02-.15,0-.3,0-.44.01-.59.02-1.18.05-1.79.1-.05,0-.1,0-.15.01-.65.06-1.31.14-1.97.24-.16.02-.32.05-.48.08-.68.11-1.36.23-2.05.38-8.98,1.91-16.86,6.22-23.63,12.93-6.77,6.71-13.64,16.39-20.58,29.03l-3.98-23.45-24.11,5.12-21.84,4.64-1.83,250.95,54.47-11.58,1.35-185.02c.26-.44.51-.85.77-1.27,1.89-3.13,3.72-5.86,5.5-8.17,1.72-2.24,3.4-4.11,5.02-5.57,3.51-3.18,7.06-5.16,10.62-5.92,2.01-.43,3.7-.35,5.07.21.2.08.39.2.57.3.14.08.29.14.42.23.19.13.35.29.52.44.11.1.24.19.34.3.18.18.33.4.49.62.08.11.17.2.25.32.22.34.43.72.61,1.13,1.42,3.24,2.11,9.34,2.04,18.32l-1.29,177.22,43.96-9.34,1.35-185.02c.26-.44.51-.85.77-1.27,1.89-3.14,3.73-5.86,5.51-8.17,1.72-2.24,3.39-4.11,5.01-5.58,3.51-3.18,7.06-5.16,10.63-5.92,2.01-.43,3.7-.35,5.07.22.2.08.39.2.58.3.14.08.29.14.42.23.19.13.35.29.52.44.11.1.24.19.34.3.18.19.33.4.49.62.08.11.17.2.25.31.22.34.43.72.61,1.13,1.43,3.24,2.11,9.34,2.04,18.32l-1.29,177.22,53.67-11.41,1.35-185.72c.19-25.67-3.24-43.59-10.28-53.73Z" />
  <polygon style="fill: oklch(from var(--col-accent) calc(l - 0.2) c h);"
    points="800.98 204.42 799.15 455.37 830.54 467.92 832.37 216.97 800.98 204.42" />
  <path style="fill: oklch(from var(--col-accent) calc(l - 0.1) c h);"
    d="M724.17,435.76c.45.17.91.33,1.38.47.07.02.14.05.22.07.55.15,1.11.28,1.7.39.15.03.3.05.46.08.49.08.99.15,1.5.2.13.01.27.03.4.04.63.06,1.28.09,1.94.1.15,0,.3,0,.46,0,.56,0,1.12,0,1.71-.03.18,0,.36-.01.54-.02.72-.04,1.45-.1,2.2-.18.12-.01.24-.03.36-.05.66-.08,1.33-.17,2.02-.28.22-.03.43-.07.65-.11.81-.14,1.63-.29,2.48-.47,13.2-2.81,25.51-9.2,36.93-19.18l-31.39-12.55c-10.48,9.16-21.71,15.29-33.69,18.41,1.13,4.48,2.91,7.88,5.34,10.15,1.35,1.26,2.95,2.24,4.8,2.95Z" />
  <polygon style="fill: oklch(from var(--col-accent) calc(l - 0.1) c h);"
    points="781.47 227.79 750.08 215.24 713.88 222.93 713.74 242.19 781.47 227.79" />
  <path style="fill: oklch(from var(--col-accent) calc(l - 0.2) c h);"
    d="M684.76,495.52c-.24-.1-.47-.2-.7-.3-.9-.39-1.78-.8-2.64-1.23-.09-.05-.18-.09-.27-.13-.93-.48-1.83-1-2.71-1.53-.22-.13-.43-.27-.65-.4-.84-.53-1.67-1.08-2.47-1.66-.05-.03-.09-.06-.14-.1-.84-.61-1.65-1.27-2.45-1.94-.2-.16-.39-.33-.58-.5-.79-.69-1.57-1.4-2.32-2.15-13.48-13.49-20.11-35.04-19.9-64.66l.83-113.89-31.53,6.7-.69,94.64c-.22,29.62,6.42,51.18,19.9,64.66,4.44,4.44,9.61,7.85,15.51,10.2l31.39,12.55c-.2-.08-.39-.17-.58-.25Z" />
  <polygon style="fill: oklch(from var(--col-accent) calc(l - 0.1) c h);"
    points="714.2 178.86 682.81 166.31 620.15 188.59 651.54 201.14 714.2 178.86" />
  <polygon style="fill: oklch(from var(--col-accent) calc(l - 0.2) c h);"
    points="651.54 201.14 620.15 188.59 619.75 242.94 651.14 255.49 651.54 201.14" />
  <polygon style="fill: oklch(from var(--col-accent) calc(l - 0.2) c h);"
    points="575.58 252.33 575.21 303.85 606.6 316.4 606.97 264.88 575.58 252.33" />
  <path style="fill: var(--col-accent)"
    d="M779.11,416.8c-11.41,9.98-23.72,16.37-36.93,19.18-.85.18-1.67.33-2.48.47-.22.04-.43.07-.65.11-.69.11-1.36.2-2.02.28-.12.01-.24.03-.36.05-.75.08-1.49.14-2.2.18-.18.01-.36.02-.54.02-.58.02-1.15.04-1.71.03-.15,0-.31,0-.46,0-.67-.01-1.32-.05-1.94-.1-.14-.01-.27-.03-.4-.04-.51-.05-1.01-.12-1.5-.2-.15-.03-.31-.05-.46-.08-.58-.11-1.15-.24-1.7-.39-.07-.02-.14-.05-.22-.07-.48-.14-.94-.3-1.38-.47-1.85-.71-3.45-1.69-4.8-2.95-2.43-2.28-4.21-5.67-5.34-10.15-1.04-4.1-1.54-9.11-1.5-15.06l.83-113.89,61.59-13.09,6.52-52.83-67.74,14.4.14-19.25.32-44.08-62.66,22.29-.4,54.35-44.17,9.39-.37,51.52,12.64-2.69,31.53-6.7-.83,113.89c-.22,29.62,6.42,51.18,19.9,64.66.75.75,1.53,1.46,2.32,2.15.19.17.39.34.58.5.8.67,1.61,1.33,2.45,1.94.05.03.09.06.14.1.8.58,1.63,1.13,2.47,1.66.21.14.43.27.65.4.89.54,1.79,1.06,2.71,1.53.09.05.18.09.27.13.86.44,1.74.85,2.64,1.23.23.1.47.2.7.3,12.11,5.03,27.34,5.6,45.7,1.69,13.73-2.92,26.45-7.67,38.17-14.24,11.71-6.58,22.02-14.27,30.92-23.08l-20.45-43.08Z" />
  <polygon style="fill: oklch(from var(--col-accent) calc(l - 0.1) c h);"
    points="651.14 255.49 619.75 242.94 575.58 252.33 606.97 264.88 651.14 255.49" />
  <polygon style="fill: oklch(from var(--col-accent2) calc(l - 0.2) c h);"
    points="1351.3 349.92 1319.91 337.37 1291.96 292.58 1323.35 305.13 1351.3 349.92" />
  <polygon style="fill: oklch(from var(--col-accent2) calc(l - 0.1) c h);"
    points="1323.35 305.13 1291.96 292.58 1421.36 174.95 1452.75 187.5 1323.35 305.13" />
  <polygon style="fill: oklch(from var(--col-accent2) calc(l - 0.2) c h);"
    points="1452.75 187.5 1421.36 174.95 1293.25 114.89 1324.64 127.44 1452.75 187.5" />
  <polygon style="fill: oklch(from var(--col-accent2) calc(l - 0.1) c h);"
    points="1324.64 127.44 1293.25 114.89 1321.37 55.36 1352.76 67.91 1324.64 127.44" />
  <polygon style="fill: var(--col-accent2)"
    points="1352.76 67.91 1506.82 149.35 1506.43 202.75 1351.3 349.92 1323.35 305.13 1452.75 187.5 1324.64 127.44 1352.76 67.91" />
</svg>