<?xml version="1.0" encoding="UTF-8"?>
<svg xmlns="http://www.w3.org/2000/svg" viewBox="0 0 800 600">
  <title>Breakout</title>
  <g style="fill: none; isolation: isolate;">
    <polygon points="582.8 103.1 612.71 91.14 616.25 576.77 586.33 588.73 582.8 103.1"
      style="fill: oklch(from var(--col-accent2) calc(l - 0.2) c h);" />
    <polygon points="207.32 23.29 237.23 11.33 612.71 91.14 582.8 103.1 207.32 23.29"
      style="fill: oklch(from var(--col-accent2) calc(l - 0.1) c h);" />
    <polygon points="582.8 103.1 586.33 588.73 210.85 508.92 207.32 23.29 582.8 103.1"
      style="fill: var(--col-accent2)" />
  </g>
  <g style="fill: none; isolation: isolate;">
    <polygon points="733.73 276.42 763.64 264.46 765.37 502.26 735.46 514.22 733.73 276.42"
      style="fill: oklch(from var(--col-accent) calc(l - 0.2) c h);" />
    <polygon points="16.3 123.92 46.22 111.96 763.64 264.46 733.73 276.42 16.3 123.92"
      style="fill: oklch(from var(--col-accent) calc(l - 0.1) c h);" />
    <polygon points="733.73 276.42 735.46 514.22 18.03 361.73 16.3 123.92 733.73 276.42"
      style="fill: var(--col-accent)" />
  </g>
</svg>