<?xml version="1.0" encoding="UTF-8"?>
<svg xmlns="http://www.w3.org/2000/svg" viewBox="0 0 780 580">
  <title>Callout</title>
  <g style="fill: none; isolation: isolate;">
    <polygon points="147.06 152.42 176.98 140.46 178.99 417.68 149.08 429.64 147.06 152.42"
      style="fill: oklch(from var(--col-accent2) calc(l - 0.2) c h);" />
    <polygon points="149.08 429.64 178.99 417.68 630.77 513.71 600.86 525.67 149.08 429.64"
      style="fill: oklch(from var(--col-accent2) calc(l - 0.1) c h);" />
    <polygon points="558.99 268.61 560.59 488.48 192.02 410.13 190.42 190.27 558.99 268.61"
      style="fill: var(--col-accent2)" />
    <polygon points="558.99 268.61 588.9 256.65 590.51 476.52 560.59 488.48 558.99 268.61"
      style="fill: oklch(from var(--col-accent2) calc(l - 0.2) c h);" />
    <polygon points="190.42 190.27 220.33 178.31 588.9 256.65 558.99 268.61 190.42 190.27"
      style="fill: oklch(from var(--col-accent2) calc(l - 0.1) c h);" />
    <polygon points="624.21 173.83 654.12 161.87 656.86 538.34 626.95 550.3 624.21 173.83"
      style="fill: oklch(from var(--col-accent2) calc(l - 0.2) c h);" />
    <polygon points="125.52 67.83 155.44 55.87 654.12 161.87 624.21 173.83 125.52 67.83"
      style="fill: oklch(from var(--col-accent2) calc(l - 0.1) c h);" />
    <path
      d="m125.52,67.83l498.69,106,2.74,376.47-498.69-106-2.74-376.47Zm475.34,457.84l-2.02-277.21-451.78-96.03,2.02,277.21,451.78,96.03"
      style="fill: var(--col-accent2)" />
  </g>
  <g style="fill: none; isolation: isolate;">
    <polygon points="554.26 200.07 584.17 188.11 584.38 216.79 554.47 228.75 554.26 200.07"
      style="fill: oklch(from var(--col-accent) calc(l - 0.2) c h);" />
    <polygon points="145.62 113.21 175.53 101.25 584.17 188.11 554.26 200.07 145.62 113.21"
      style="fill: oklch(from var(--col-accent) calc(l - 0.1) c h);" />
    <polygon points="554.26 200.07 554.47 228.75 145.83 141.89 145.62 113.21 554.26 200.07"
      style="fill: var(--col-accent)" />
  </g>
</svg>