<?xml version="1.0" encoding="UTF-8"?>
<svg id="a" data-name="Ebene 1" xmlns="http://www.w3.org/2000/svg" viewBox="0 0 800 600">
  <g style="fill: none; isolation: isolate;">
    <polygon points="582.8 103.1 612.71 91.14 616.25 576.77 586.33 588.73 582.8 103.1" style="fill: #4e7790;"/>
    <polygon points="207.32 23.29 237.23 11.33 612.71 91.14 582.8 103.1 207.32 23.29" style="fill: #5986a3;"/>
    <polygon points="582.8 103.1 586.33 588.73 210.85 508.92 207.32 23.29 582.8 103.1" style="fill: #72add3;"/>
  </g>
  <g style="fill: none; isolation: isolate;">
    <polygon points="23.6 118.02 53.52 106.06 55.25 343.86 25.33 355.82 23.6 118.02" style="fill: #8e214a;"/>
    <polygon points="-173.57 76.11 -143.66 64.15 53.52 106.06 23.6 118.02 -173.57 76.11" style="fill: #a02655;"/>
    <polygon points="23.6 118.02 25.33 355.82 -171.84 313.91 -173.57 76.11 23.6 118.02" style="fill: #d0306e;"/>
  </g>
  <g style="fill: none; isolation: isolate;">
    <polygon points="246.15 169.08 276.06 157.12 277.79 394.91 247.88 406.87 246.15 169.08" style="fill: #8e214a;"/>
    <polygon points="48.98 127.17 78.89 115.21 276.06 157.12 246.15 169.08 48.98 127.17" style="fill: #a02655;"/>
    <polygon points="246.15 169.08 247.88 406.87 50.71 364.96 48.98 127.17 246.15 169.08" style="fill: #d0306e;"/>
  </g>
  <g style="fill: none; isolation: isolate;">
    <polygon points="468.04 217.2 497.95 205.24 499.68 443.04 469.77 455 468.04 217.2" style="fill: #8e214a;"/>
    <polygon points="270.87 175.29 300.78 163.33 497.95 205.24 468.04 217.2 270.87 175.29" style="fill: #a02655;"/>
    <polygon points="468.04 217.2 469.77 455 272.6 413.09 270.87 175.29 468.04 217.2" style="fill: #d0306e;"/>
  </g>
  <g style="fill: none; isolation: isolate;">
    <polygon points="691.24 269.22 721.15 257.26 722.88 495.06 692.97 507.02 691.24 269.22" style="fill: #8e214a;"/>
    <polygon points="494.07 227.31 523.98 215.35 721.15 257.26 691.24 269.22 494.07 227.31" style="fill: #a02655;"/>
    <polygon points="691.24 269.22 692.97 507.02 495.8 465.11 494.07 227.31 691.24 269.22" style="fill: #d0306e;"/>
  </g>
  <g style="fill: none; isolation: isolate;">
    <polygon points="716.61 278.37 746.53 266.41 943.7 308.32 913.78 320.28 716.61 278.37" style="fill: #a02655;"/>
    <polygon points="913.78 320.28 915.51 558.07 718.34 516.16 716.61 278.37 913.78 320.28" style="fill: #d0306e;"/>
  </g>
</svg>