<svg xmlns="http://www.w3.org/2000/svg" xml:space="preserve" fill-rule="evenodd" stroke-linejoin="round"
  stroke-miterlimit="2" clip-rule="evenodd" viewBox="0 0 1367 1337" width="800" height="600">
  <title>Avatar</title>
  <path style="fill: oklch(from var(--col-accent2) calc(l - 0.2) c h);" d="m1164 1033-101 103 51-82 50-21Z" />
  <path style="fill: var(--col-accent2)" d="M0 20v797l911 194 152 125 51-82 202 43V300L0 20Z" />
  <path style="fill: oklch(from var(--col-accent2) calc(l - 0.2) c h);" d="m1316 300 51-20v796l-51 21V300Z" />
  <path style="fill: oklch(from var(--col-accent2) calc(l - 0.1) c h);" d="M0 20 51 0l1316 280-51 20L0 20Z" />
  <path style="fill: oklch(from var(--col-accent) calc(l - 0.2) c h);"
    d="M641 328c66-127 200-99 266-14 67 85 67 225 0 352-46 95-166 175-266 225-100-92-220-223-267-339-67-155-67-295 0-351 67-57 200-28 267 127Z" />
  <path style="fill: oklch(from var(--col-accent) calc(l - 0.2) c h);"
    d="m366 198 35-14 53 4-88 10Zm318 67 35-14 53 5-88 9Zm-81 641 38-15-9-13-29 28Z" />
  <path style="fill: var(--col-accent)"
    d="M603 343c66-127 200-98 266-14 67 85 67 226 0 352-46 96-166 176-266 225-100-92-220-223-267-338-67-155-67-296 0-352s200-28 267 127Z" />
</svg>