<svg xmlns="http://www.w3.org/2000/svg" xml:space="preserve" fill-rule="evenodd" stroke-linejoin="round"
  stroke-miterlimit="2" clip-rule="evenodd" viewBox="-200 0 1567 1337" width="220">
  <title>Avatar</title>
  <path fill="#396280" d="m1164 1033-101 103 51-82 50-21Z" />
  <path fill="#62a9dc" d="M0 20v797l911 194 152 125 51-82 202 43V300L0 20Z" />
  <path fill="#396280" d="m1316 300 51-20v796l-51 21V300Z" />
  <path fill="#447598" d="M0 20 51 0l1316 280-51 20L0 20Z" />
  <path fill="#80153d"
    d="M641 328c66-127 200-99 266-14 67 85 67 225 0 352-46 95-166 175-266 225-100-92-220-223-267-339-67-155-67-295 0-351 67-57 200-28 267 127Z" />
  <path fill="#80153d" d="m366 198 35-14 53 4-88 10Zm318 67 35-14 53 5-88 9Zm-81 641 38-15-9-13-29 28Z" />
  <path fill="#dc2369"
    d="M603 343c66-127 200-98 266-14 67 85 67 226 0 352-46 96-166 176-266 225-100-92-220-223-267-338-67-155-67-296 0-352s200-28 267 127Z" />
</svg>