<?xml version="1.0" encoding="UTF-8"?>
<svg xmlns="http://www.w3.org/2000/svg" xmlns:xlink="http://www.w3.org/1999/xlink" viewBox="0 0 800 600">
  <title>Styled Links</title>
  <g>
    <g style="fill: none; isolation: isolate;">
      <polygon points="88.12 192.68 121.49 179.33 261.03 303.8 227.66 317.14 88.12 192.68"
        style="fill: oklch(from var(--col-accent2) calc(l - 0.1) c h);" />
      <polygon points="227.66 317.14 261.03 303.8 230.86 354.73 197.49 368.07 227.66 317.14"
        style="fill: oklch(from var(--col-accent2) calc(l - 0.2) c h);" />
      <polygon points="226.26 125.45 259.63 112.11 121.49 179.33 88.12 192.68 226.26 125.45"
        style="fill: oklch(from var(--col-accent2) calc(l - 0.2) c h);" />
      <polygon points="196.34 63.54 229.71 50.2 259.63 112.11 226.26 125.45 196.34 63.54"
        style="fill: oklch(from var(--col-accent2) calc(l - 0.1) c h);" />
      <polygon
        points="196.34 63.54 226.26 125.45 88.12 192.68 227.66 317.14 197.49 368.07 29.93 209.11 29.51 151.94 196.34 63.54"
        style="fill: var(--col-accent2)" />
    </g>
    <g style="fill: none; isolation: isolate;">
      <polygon points="493.73 393.58 527.1 380.24 513.58 430.37 480.21 443.71 493.73 393.58"
        style="fill: oklch(from var(--col-accent) calc(l - 0.2) c h);" />
      <g>
        <path d="m319.55,245.7c-.34.09-.66.19-1,.28.33-.09.66-.19,1-.28Z" style="fill: none;" />
        <path
          d="m408.38,351.34c-.8-.11-1.6-.25-2.4-.42-9.56-2.03-17.03-6.5-22.42-13.43-5.39-6.91-8.13-15.65-8.21-26.21-.05-7.28,1.23-13.3,3.83-18.07-8.9-.54-16.16.42-21.8,2.88-.18.08-.36.15-.54.23-.55.25-1.09.52-1.61.8-8.94,4.89-13.36,14.06-13.26,27.5.08,10.56,2.82,19.29,8.21,26.21,5.39,6.92,12.86,11.4,22.42,13.43.79.17,1.59.3,2.38.41.1.01.2.03.3.04.75.1,1.51.17,2.26.22.13,0,.27.02.4.02.75.04,1.49.05,2.24.04.13,0,.25,0,.38,0,.77-.02,1.53-.06,2.3-.13.08,0,.16-.02.23-.03.77-.08,1.55-.18,2.32-.31.05,0,.1-.01.15-.02.78-.13,1.56-.3,2.34-.49.12-.03.24-.06.36-.09.75-.19,1.51-.41,2.26-.65.14-.04.27-.09.41-.13.76-.25,1.51-.52,2.27-.82.88-.35,1.76-.73,2.65-1.14,4.95-2.35,9.12-5.63,12.51-9.85Z"
          style="fill: oklch(from var(--col-accent) calc(l - 0.1) c h);" />
        <path
          d="m313.7,247.49c.56-.2,1.14-.38,1.72-.56.39-.13.77-.26,1.16-.38.65-.2,1.31-.38,1.97-.56.33-.09.66-.19,1-.28,1.01-.27,2.03-.52,3.07-.75,16.5-3.71,36.36-3.1,59.61,1.84l30.59,6.5-.07-10.21c-.03-3.65-.32-7.11-.86-10.39-21.66-4.24-40.29-4.6-55.9-1.09-4.18.94-8.1,2.15-11.77,3.61l-33.37,13.34s.05-.02.07-.03c.52-.21,1.05-.4,1.58-.59.4-.15.79-.31,1.2-.45Z"
          style="fill: oklch(from var(--col-accent) calc(l - 0.1) c h);" />
        <path
          d="m482.1,380.53c-2.32-5.16-3.51-12.76-3.59-22.8l-.77-106.18c-.23-31.48-8.6-57.04-25.12-76.7-16.52-19.65-41.47-33.02-74.84-40.11-13.13-2.79-27.59-4.12-43.4-4-15.81.13-30.81,1.9-45.03,5.34l16.01,56.92c10.95-2.09,22.15-3.2,33.62-3.31,11.46-.11,20.97.63,28.53,2.24,26.01,5.53,40.8,19.13,44.37,40.77.54,3.28.83,6.74.86,10.39l.07,10.21-30.59-6.5c-23.25-4.94-43.12-5.55-59.61-1.84-1.04.23-2.06.48-3.07.75-.34.09-.66.19-1,.28-.66.18-1.33.37-1.97.56-.39.12-.77.25-1.16.38-.57.19-1.15.37-1.72.56-.41.14-.8.3-1.2.45-.53.2-1.06.39-1.58.59-10.86,4.33-19.5,10.95-25.94,19.88-8.6,11.94-12.83,27.6-12.69,47,.12,16.68,3.37,32.11,9.73,46.28,6.37,14.18,15.39,26.13,27.06,35.82,11.68,9.71,25.22,16.2,40.62,19.47,14.83,3.15,28.89,3.04,42.18-.34,13.29-3.37,24.1-10.21,32.43-20.5,5.21,11.98,12.37,21.78,21.47,29.41,9.1,7.63,20.57,13.68,34.41,18.14l13.52-50.13c-5.44-3.53-9.32-7.88-11.63-13.05Zm-91.15-17.38c-.14.05-.27.09-.41.13-.75.24-1.51.46-2.26.65-.12.03-.24.06-.36.09-.78.19-1.56.36-2.34.49-.05,0-.1.01-.15.02-.77.13-1.55.23-2.32.31-.08,0-.16.02-.23.03-.77.07-1.53.11-2.3.13-.13,0-.25,0-.38,0-.75.01-1.5,0-2.24-.04-.13,0-.27-.02-.4-.02-.76-.05-1.51-.12-2.26-.22-.1-.01-.2-.03-.3-.04-.79-.11-1.59-.25-2.38-.41-9.56-2.03-17.03-6.5-22.42-13.43-5.39-6.91-8.13-15.65-8.21-26.21-.1-13.44,4.33-22.61,13.26-27.5.52-.28,1.06-.55,1.61-.8.18-.08.36-.16.54-.23,5.64-2.46,12.9-3.42,21.8-2.88,5.2.32,10.95,1.13,17.27,2.48l16.69,3.55.32,43.9c-1.44,3.05-3.14,5.77-5.09,8.2-3.39,4.21-7.56,7.5-12.51,9.85-.88.42-1.77.8-2.65,1.14-.76.3-1.51.57-2.27.82Z"
          style="fill: var(--col-accent)" />
      </g>
    </g>
    <g style="fill: none; isolation: isolate;">
      <polygon points="740.63 360.18 774 346.84 608.24 434.94 574.87 448.29 740.63 360.18"
        style="fill: oklch(from var(--col-accent2) calc(l - 0.2) c h);" />
      <polygon points="740.21 302.49 773.58 289.14 774 346.84 740.63 360.18 740.21 302.49"
        style="fill: oklch(from var(--col-accent2) calc(l - 0.2) c h);" />
      <polygon points="572.01 143.39 605.38 130.05 773.58 289.14 740.21 302.49 572.01 143.39"
        style="fill: oklch(from var(--col-accent2) calc(l - 0.1) c h);" />
      <polygon
        points="572.01 143.39 740.21 302.49 740.63 360.18 574.87 448.29 543.88 386.9 682.23 318.96 542.48 194.97 572.01 143.39"
        style="fill: var(--col-accent2)" />
    </g>
  </g>
  <path
    d="m515.47,367.19c-2.32-5.16-3.51-12.76-3.59-22.8l-.77-106.18c-.23-31.48-8.6-57.04-25.12-76.7-16.52-19.65-41.47-33.02-74.84-40.11-13.13-2.79-27.59-4.12-43.4-4-15.81.13-30.81,1.9-45.03,5.34l-33.37,13.34c14.22-3.44,29.22-5.21,45.03-5.34,15.81-.12,30.27,1.21,43.4,4,33.37,7.09,58.32,20.46,74.84,40.11,16.52,19.66,24.89,45.22,25.12,76.7l.77,106.18c.07,10.04,1.27,17.64,3.59,22.8,2.31,5.17,6.19,9.52,11.63,13.05l33.37-13.34c-5.44-3.53-9.32-7.88-11.63-13.05Z"
    style="fill: oklch(from var(--col-accent) calc(l - 0.1) c h);" />
</svg>