<?xml version="1.0" encoding="UTF-8"?>
<svg xmlns="http://www.w3.org/2000/svg" viewBox="0 0 800 600">
  <polygon points="646.6 147.67 676.52 135.71 679.34 523.97 649.43 535.93 646.6 147.67" style="fill: #396280;" />
  <polygon points="92.37 29.86 122.28 17.9 676.52 135.71 646.6 147.67 92.37 29.86" style="fill: #447598;" />
  <polygon points="646.6 147.67 649.43 535.93 95.19 418.13 92.37 29.86 646.6 147.67" style="fill: #62a9dc;" />
  <polygon points="677.48 198.36 707.4 186.4 710.22 574.65 680.31 586.61 677.48 198.36" style="fill: #80153d;" />
  <polygon points="493.19 159.19 523.11 147.23 707.4 186.4 677.48 198.36 493.19 159.19" style="fill: #981949;" />
  <polygon points="677.48 198.36 680.31 586.61 496.02 547.44 493.19 159.19 677.48 198.36" style="fill: #dc2369;" />
</svg>