<svg xmlns="http://www.w3.org/2000/svg" viewBox="0 0 800 600">
  <title>Group</title>
  <path fill="#4e7790" d="m246 103 30-12 2 319-30 11-2-318z" />
  <path fill="#5986a3" d="M78 49H67L37 61h11l198 42 30-12L78 49Z" />
  <path fill="#72add3" d="m246 103 2 318-198-42c-12-2-22-15-22-28L26 80c0-13 9-22 22-20l198 43Z" />
  <path fill="#8e234b" d="m492 155 30-12 2 319-30 12-2-319z" />
  <path fill="#a12855" d="m272 108 30-12 220 47-30 12-220-47z" />
  <path fill="#d0336f" d="m492 155 2 319-220-47-2-319 220 47z" />
  <path fill="#5986a3" d="m518 161 30-12 198 42-30 12-198-42z" />
  <path fill="#4e7790"
    d="M768 220c0-14-10-27-22-29l-30 12c12 2 22 15 22 28l2 271c0 9-4 16-11 19l30-12c7-3 11-10 11-19l-2-270Z" />
  <path fill="#72add3" d="M716 203c12 2 22 15 22 28l2 271c0 13-9 22-21 19l-199-42-2-319 198 43Z" />
</svg>