<svg xmlns="http://www.w3.org/2000/svg" viewBox="70 -100 780 580">
  <path d="m79 173 30-12 755 160-30 12L79 173z" fill="#5986a3" />
  <path d="M834 333v19L79 191v-18l755 160z" fill="#72add3" />
  <path d="m832 132 30-12 2 174-30 12-2-174z" fill="#4e7790" />
  <path d="m278 14 30-12 554 118-30 12L278 14z" fill="#5986a3" />
  <path d="m832 132 2 174-555-118-1-174 554 118z" fill="#72add3" />
  <path d="m91 78 30-12 31 7-29 12-32-7z" fill="#a12755" />
  <path d="m138 114 30-12-16 50-29 12 15-50z" fill="#8e224b" />
  <path d="m107 24 30-12 32 7-30 12-32-7z" fill="#a12755" />
  <path d="m155 60 30-12-10 30-30 12 10-30z" fill="#8e224b" />
  <path d="m145 90 30-12 29 6-30 12-29-6z" fill="#a12755" />
  <path d="m189 125 30-12-16 50-29 12 15-50z" fill="#8e224b" />
  <path d="m162 36 30-12 28 6-30 12-28-6z" fill="#a12755" />
  <path d="m206 71 30-12-10 30-29 12 9-30zM178-14l30-12-16 50-30 12 16-50z" fill="#8e224b" />
  <path d="m197 101 29-12 32 7-30 11-31-6z" fill="#a12755" />
  <path d="m228 107 30-11-7 23-30 12 7-24z" fill="#8e224b" />
  <path d="m213 47 30-12 31 6-30 12-31-6z" fill="#a12755" />
  <path d="m244 53 30-12-8 24-30 12 8-24zM229-4l30-11-16 50-30 12 16-51z" fill="#8e224b" />
  <path fill="#d0316f"
    d="m236 77-30-6-9 30 31 6-7 24-32-6-15 50-24-5 16-50-28-6-15 50-24-5 16-50-31-7 8-24 31 7 9-30-33-7 8-24 32 7 16-50 23 5-16 50 28 6 16-50 23 4-16 51 31 6-8 24Zm-62 19 9-30-28-6-10 30 29 6" />
</svg>