<?xml version="1.0" encoding="UTF-8"?>
<svg xmlns="http://www.w3.org/2000/svg" viewBox="-10 -10 820 620">
  <title>Headline</title>
  <g style="fill: none; isolation: isolate;">
    <polygon points="763.86 511.81 793.78 499.85 793.91 518.53 764 530.49 763.86 511.81"
      style="fill: oklch(from var(--col-accent2) calc(l - 0.2) c h);" />
    <polygon points="9.31 351.42 39.23 339.46 793.78 499.85 763.86 511.81 9.31 351.42"
      style="fill: oklch(from var(--col-accent2) calc(l - 0.1) c h);" />
    <polygon points="763.86 511.81 764 530.49 9.45 370.11 9.31 351.42 763.86 511.81" style="fill: var(--col-accent2)" />
  </g>
  <g style="fill: none; isolation: isolate;">
    <polygon points="762.4 311.06 792.32 299.1 793.58 473.19 763.67 485.15 762.4 311.06"
      style="fill: oklch(from var(--col-accent2) calc(l - 0.2) c h);" />
    <polygon points="208.17 193.25 238.08 181.29 792.32 299.1 762.4 311.06 208.17 193.25"
      style="fill: oklch(from var(--col-accent2) calc(l - 0.1) c h);" />
    <polygon points="762.4 311.06 763.67 485.15 209.43 367.35 208.17 193.25 762.4 311.06"
      style="fill: var(--col-accent2)" />
  </g>
  <g style="fill: none; isolation: isolate;">
    <polygon points="21.49 257.32 51.4 245.36 82.45 251.96 52.54 263.92 21.49 257.32"
      style="fill: oklch(from var(--col-accent) calc(l - 0.1) c h);" />
    <polygon points="68.42 292.69 98.33 280.73 82.49 330.86 52.57 342.82 68.42 292.69"
      style="fill: oklch(from var(--col-accent) calc(l - 0.2) c h);" />
    <polygon points="36.76 203.21 66.67 191.25 99.02 198.13 69.11 210.09 36.76 203.21"
      style="fill: oklch(from var(--col-accent) calc(l - 0.1) c h);" />
    <polygon points="84.66 238.53 114.57 226.57 104.97 257 75.05 268.96 84.66 238.53"
      style="fill: oklch(from var(--col-accent) calc(l - 0.2) c h);" />
    <polygon points="75.05 268.96 104.97 257 133.64 263.1 103.73 275.06 75.05 268.96"
      style="fill: oklch(from var(--col-accent) calc(l - 0.1) c h);" />
    <polygon points="119.17 303.48 149.08 291.52 133.46 341.69 103.54 353.65 119.17 303.48"
      style="fill: oklch(from var(--col-accent) calc(l - 0.2) c h);" />
    <polygon points="92.38 215.04 122.3 203.07 149.78 208.92 119.86 220.88 92.38 215.04"
      style="fill: oklch(from var(--col-accent) calc(l - 0.1) c h);" />
    <polygon points="135.85 249.67 165.76 237.71 156.47 267.69 126.55 279.65 135.85 249.67"
      style="fill: oklch(from var(--col-accent) calc(l - 0.2) c h);" />
    <polygon points="84.73 159.65 114.65 147.69 137.91 152.64 108 164.6 84.73 159.65"
      style="fill: oklch(from var(--col-accent) calc(l - 0.1) c h);" />
    <polygon points="108 164.6 137.91 152.64 122.3 203.07 92.38 215.04 108 164.6"
      style="fill: oklch(from var(--col-accent) calc(l - 0.2) c h);" />
    <polygon points="126.55 279.65 156.47 267.69 188.07 274.41 158.15 286.37 126.55 279.65"
      style="fill: oklch(from var(--col-accent) calc(l - 0.1) c h);" />
    <polygon points="158.15 286.37 188.07 274.41 180.57 298.21 150.66 310.17 158.15 286.37"
      style="fill: oklch(from var(--col-accent) calc(l - 0.2) c h);" />
    <polygon points="143.13 225.82 173.04 213.86 203.67 220.37 173.75 232.33 143.13 225.82"
      style="fill: oklch(from var(--col-accent) calc(l - 0.1) c h);" />
    <polygon points="173.75 232.33 203.67 220.37 195.84 244.1 165.93 256.06 173.75 232.33"
      style="fill: oklch(from var(--col-accent) calc(l - 0.2) c h);" />
    <polygon points="158.75 175.39 188.67 163.43 173.04 213.86 143.13 225.82 158.75 175.39"
      style="fill: oklch(from var(--col-accent) calc(l - 0.2) c h);" />
    <path
      d="m165.93,256.06l-30.08-6.39-9.29,29.99,31.6,6.72-7.49,23.8-31.49-6.69-15.63,50.18-23.26-4.94,15.63-50.18-27.49-5.84-15.84,50.13-23.26-4.94,15.63-50.18-31.28-6.65,7.83-23.73,31.05,6.6,9.29-29.99-32.9-6.99,7.83-23.73,32.35,6.88,15.62-50.43,23.26,4.94-15.62,50.44,27.48,5.84,15.84-50.39,23.05,4.9-15.62,50.43,30.63,6.51-7.83,23.73Zm-62.2,19l9.29-30.5-28.35-6.03-9.61,30.44,28.67,6.09"
      style="fill: var(--col-accent)" />
    <polygon points="135.7 170.49 165.62 158.53 188.67 163.43 158.75 175.39 135.7 170.49"
      style="fill: oklch(from var(--col-accent) calc(l - 0.1) c h);" />
  </g>
</svg>