<?xml version="1.0" encoding="UTF-8"?>
<svg xmlns="http://www.w3.org/2000/svg" viewBox="0 0 780 580">
    <title>Layout</title>
    <polygon style="fill: oklch(from var(--col-accent2) calc(l - 0.2) c h);"
        points="495.74 215.02 525.66 203.06 528.05 531.04 498.13 543 495.74 215.02" />
    <polygon style="fill: oklch(from var(--col-accent2) calc(l - 0.1) c h);"
        points="124.92 136.2 154.83 124.24 525.66 203.06 495.74 215.02 124.92 136.2" />
    <polygon style="fill: var(--col-accent2)"
        points="495.74 215.02 498.13 543 127.31 464.18 124.92 136.2 495.74 215.02" />
    <polygon style="fill: oklch(from var(--col-accent2) calc(l - 0.2) c h);"
        points="623.61 242.2 653.52 230.24 655.91 558.22 625.99 570.18 623.61 242.2" />
    <polygon style="fill: oklch(from var(--col-accent2) calc(l - 0.1) c h);"
        points="508.53 217.74 538.44 205.78 653.52 230.24 623.61 242.2 508.53 217.74" />
    <polygon style="fill: var(--col-accent2)"
        points="623.61 242.2 625.99 570.18 510.92 545.72 508.53 217.74 623.61 242.2" />
    <polygon style="fill: oklch(from var(--col-accent2) calc(l - 0.2) c h);"
        points="623.33 204.06 653.24 192.1 653.41 214.98 623.5 226.94 623.33 204.06" />
    <polygon style="fill: oklch(from var(--col-accent2) calc(l - 0.1) c h);"
        points="124.64 98.06 154.56 86.1 653.24 192.1 623.33 204.06 124.64 98.06" />
    <polygon style="fill: var(--col-accent2)"
        points="623.33 204.06 623.5 226.94 124.81 120.94 124.64 98.06 623.33 204.06" />
    <polygon style="fill: oklch(from var(--col-accent) calc(l - 0.2) c h);"
        points="622.77 127.78 652.69 115.82 653.13 176.84 623.22 188.8 622.77 127.78" />
    <polygon style="fill: oklch(from var(--col-accent) calc(l - 0.1) c h);"
        points="124.09 21.78 154 9.82 652.69 115.82 622.77 127.78 124.09 21.78" />
    <polygon style="fill: var(--col-accent)"
        points="622.77 127.78 623.22 188.8 124.53 82.8 124.09 21.78 622.77 127.78" />
</svg>