<svg xmlns="http://www.w3.org/2000/svg" viewBox="0 0 800 600">
  <title>Loading</title>
  <path fill="#bc3064"
    d="M412 406h-2c-63-15-115-88-115-164a142 142 0 0 1 12-57l2-4 4-7c7-11 15-21 25-28l5-4a87 87 0 0 0-18 6l-1 1-3 1-3 2h-1l-2 1-1 1a68 68 0 0 1-3 2l-2 1-1 1-3 2-2 2-1 1-2 2h-1l-2 3-2 2-1 1-2 2v1l-2 2-1 1-2 2v1l-2 3-2 3v1l-2 3-2 3v1a21 21 0 0 1-2 3l-1 4h-1l-1 3v1l-1 4-1 4-1 1-1 3-1 4v1l-1 3v5l-1 5v1l-1 3v15c0 76 51 149 115 164h1l4 1h4l2 1h24v-1h4l2-1h4l2-1 3-1 1-1h2l15-8c-12 2-24 2-37-1Zm-1-352-2-1c-30-6-57-4-82 6l-30 12 5-2 4-1 2-1h3l1-1 3-1h2l3-1h1l5-1h1l4-1h21a71 71 0 0 1 6 0h6l3 1h2l3 1h2l5 1 2 1c22 4 42 14 61 26l30-12c-19-12-39-22-61-26Zm150 275v12l-1 3v7l-1 4v1l-1 4v5l-1 1v4l-1 5-1 1-1 3v1l-1 4v1l-1 4-1 1-1 4-1 4-1 1-1 3v1l-2 4v1l-1 3-1 1-1 3-1 1-1 3-1 1-2 4-2 3v1l-2 3-2 4-1 1-2 2v1l-2 3-1 1-2 2v1l-3 3-2 3-1 1-2 2h-1l-2 3-1 1-2 2-1 1-2 2-1 1-2 2h-1l-3 3-3 2-3 2v1l-3 2h-1l-3 2-4 2v1l-3 1h-1l-3 2-3 2h-1l-3 2-3 1 30-12c57-23 96-85 97-167l-30 12v5Z" />
  <path fill="#d0346f"
    d="M297 168Zm128 249h-1 1Zm3-1Zm-85-274a91 91 0 0 1 38 1c14 4 27 10 40 18l21-69c-18-13-39-22-60-27h-3l-5-1h-2l-3-1h-2l-3-1h-33l-4 1h-1l-5 1h-1l-3 1h-2l-3 1h-1l-3 1-2 1a40 40 0 0 0-4 1l-5 2c-57 23-97 86-97 168 0 119 80 234 180 257h2c31 7 60 4 85-7l3-2h1l3-1 1-1 3-1 1-1 2-1 1-1 3-2h1l2-2h1l3-2 3-2 1-1 2-2h1l2-3h1l2-2 1-1 3-2v-1l3-2v-1l3-2v-1l2-2 1-1 2-3h1l2-3 1-1 2-2v-1l2-3 1-1 2-2v-1l2-3 1-1 1-3 1-1 2-3 2-4v-1l2-3v-1l2-3v-1l1-3 1-1 1-4 1-1 1-3v-1l2-4 1-4v-1l1-4 2-5v-1l1-3v-1l1-4v-1l1-4v-1l1-4 1-5v-6l1-4v-7l1-4v-11l-66-15c0 44-19 80-47 98l-15 7-2 1-1 1a94 94 0 0 1-3 1h-2l-1 1h-3l-2 1h-4l-3 1h-21l-2-1h-4l-4-1h-1c-64-15-115-88-115-164v-10l1-4v-6l1-4v-4l1-1v-3l1-1v-4l1-1v-3l1-1 1-3 1-4 1-1 1-3 1-4 1-1 1-2 1-1 1-3 2-3v-1l2-3 2-3 1-1 1-2 1-1 2-3 2-2 1-1 2-2 3-3v-1l2-1 1-1 2-2h1l2-2 1-1 2-1 1-1 2-1 1-1 2-1 1-1 3-1 3-2h1l2-1 16-5m-71 72v-1 1Zm161 201h-1 1ZM283 187v-1 1Zm-2 3Zm-2 4v-1 1Zm10-17 1-1-1 1Zm-2 3v-1 1Zm-14 29Zm12-26h-1Zm-11 22v-1 1Zm18-32Zm2-2v-1 1Zm-19 31 1-1-1 1Zm2-5Z" />
  <path fill="#d0346f"
    d="m324 149 1-1h-1Zm-56 78v-2 2Zm-2 18v-1 1Zm127 175h-2 2Zm6 0Zm-3 0h-1 1Zm-88-262v-1 1Zm9-6h1-1Zm-6 4Zm3-2 1-1-1 1Zm89 266h-1 1ZM267 231Zm119 188h-1 1ZM266 250v-1 1Zm123 169h-1 1Zm-87-256 1-1-1 1Zm-36 77v-1 1Zm147 180h-1Zm3-1ZM270 218v-1 1Zm29-53h1-1Zm-32 71v-1 1Zm152 182-1 1 1-1ZM305 160Zm117 258h-1 1Zm-12 2h-2 1Zm-89-270Zm-52 72v-1 1Zm137 198h-1 1ZM340 62Zm-5 0h-3 3Zm-38 9 5-2-5 2Zm14-4h-3 3Zm20-4h-5 5Zm16-1h5-5Zm-1 0h-4 3Zm-40 6-4 1 4-1Zm20-5Zm-6 1-3 1 3-1Zm-5 1-3 1 3-1Zm42-3h-5 5Zm5 0h-4 4Zm10 2-3-1 3 1Zm-5-1-3-1 3 1Zm12 2-5-1 5 1Zm103 416-1 1 1-1Zm73-106v1-1Zm2-5-1 1v-1Zm-71 109h-1 1Zm68-100v1-1Zm-2 10-1 1 1-1Zm-63 88h-1 1Zm68-112v1-1Zm-34 80-1 1 1-1Zm30-60Zm7-41v1-1Zm1-10v1-1Zm0 5v2-2Zm-90 148h-1 1Zm90-158v1-1Zm-86 156-1 1 1-1Zm84-130v1-1Zm-92 134Zm91-129c0 1 0 1 0 0Zm-79 123-1 1 1-1Zm81-133v1-1Zm-10 44Zm-20 41Zm-19 23v1-1Zm24-31v1-1Zm-2 4h-1 1Zm4-7Zm-28 37-1 1 1-1Zm16-19v1-1Zm-5 7Zm-15 15v1-1Zm23-26-1 1 1-1Zm-14 17Zm3-3v1-1Zm26-41v1-1Zm-44 59Zm46-63v1-1Zm4-9-1 1 1-1Zm-2 4v1-1Zm-55 73Zm4-3-1 1 1-1Zm43-53v1-1Zm2-4v1-1Zm-39 52Z" />
  <path fill="#689cbe" d="m472 80-30 12 22 16a285 285 0 0 1 97 214v2l30-12v-2c1-94-49-184-119-230Z" />
  <path fill="#72acd2" d="M561 305A285 285 0 0 0 442 92l-21 69c44 29 75 87 75 146v2l65 15v-19Z" />
</svg>