<svg xmlns="http://www.w3.org/2000/svg" viewBox="-80 -60 780 580">
  <title>Navigation</title>
  <path d="m547 596 30-12 1 61-30 12-1-61z" fill="#396280" />
  <path d="m49 490 29-12 499 106-30 12L49 490z" fill="#447598" />
  <path d="m547 596 1 61L49 551v-61l498 106z" fill="#62a9dc" />
  <path d="m546 491 30-12 1 61-30 12-1-61z" fill="#396280" />
  <path d="m48 385 30-12 498 106-30 12L48 385z" fill="#447598" />
  <path d="m546 491 1 61L48 446v-61l498 106z" fill="#62a9dc" />
  <path d="m546 386 30-12v61l-30 12v-61z" fill="#396280" />
  <path d="m47 280 30-12 499 106-30 12L47 280z" fill="#447598" />
  <path d="M546 386v61L47 341v-61l499 106z" fill="#62a9dc" />
  <path d="m545 280 30-12v61l-30 12v-61z" fill="#396280" />
  <path d="m46 174 30-12 499 106-30 12L46 174z" fill="#447598" />
  <path d="M545 280v61L47 235l-1-61 499 106z" fill="#62a9dc" />
  <path d="m544 175 30-12 1 61-30 12-1-61z" fill="#396280" />
  <path d="m46 69 29-12 499 106-30 12L46 69z" fill="#447598" />
  <path d="m544 175 1 61L46 130V69l498 106z" fill="#62a9dc" />
  <path fill="#80153d" d="m543 72 30-11 1 61-30 11-1-61z" />
  <path fill="#981949" d="m45-34 30-12L573 61l-30 11L45-34z" />
  <path fill="#dc2369" d="m543 72 1 61L45 27v-61L543 72z" />
</svg>