<svg xmlns="http://www.w3.org/2000/svg" viewBox="-80 -60 780 580">
  <title>Navigation</title>
  <path d="m547 596 30-12 1 61-30 12-1-61z" style="fill: oklch(from var(--col-accent2) calc(l - 0.2) c h);" />
  <path d="m49 490 29-12 499 106-30 12L49 490z" style="fill: oklch(from var(--col-accent) calc(l - 0.1) c h);" />
  <path d="m547 596 1 61L49 551v-61l498 106z" style="fill: var(--col-accent2)" />
  <path d="m546 491 30-12 1 61-30 12-1-61z" style="fill: oklch(from var(--col-accent2) calc(l - 0.2) c h);" />
  <path d="m48 385 30-12 498 106-30 12L48 385z" style="fill: oklch(from var(--col-accent2) calc(l - 0.1) c h);" />
  <path d="m546 491 1 61L48 446v-61l498 106z" style="fill: var(--col-accent2)" />
  <path d="m546 386 30-12v61l-30 12v-61z" style="fill: oklch(from var(--col-accent2) calc(l - 0.2) c h);" />
  <path d="m47 280 30-12 499 106-30 12L47 280z" style="fill: oklch(from var(--col-accent2) calc(l - 0.1) c h);" />
  <path d="M546 386v61L47 341v-61l499 106z" style="fill: var(--col-accent2)" />
  <path d="m545 280 30-12v61l-30 12v-61z" style="fill: oklch(from var(--col-accent2) calc(l - 0.2) c h);" />
  <path d="m46 174 30-12 499 106-30 12L46 174z" style="fill: oklch(from var(--col-accent2) calc(l - 0.1) c h);" />
  <path d="M545 280v61L47 235l-1-61 499 106z" style="fill: var(--col-accent2)" />
  <path d="m544 175 30-12 1 61-30 12-1-61z" style="fill: oklch(from var(--col-accent2) calc(l - 0.2) c h);" />
  <path d="m46 69 29-12 499 106-30 12L46 69z" style="fill: oklch(from var(--col-accent2) calc(l - 0.1) c h);" />
  <path d="m544 175 1 61L46 130V69l498 106z" style="fill: var(--col-accent2)" />
  <path style="fill: oklch(from var(--col-accent) calc(l - 0.2) c h);" d="m543 72 30-11 1 61-30 11-1-61z" />
  <path style="fill: oklch(from var(--col-accent) calc(l - 0.1) c h);" d="m45-34 30-12L573 61l-30 11L45-34z" />
  <path style="fill: var(--col-accent)" d="m543 72 1 61L45 27v-61L543 72z" />
</svg>