<?xml version="1.0" encoding="UTF-8"?>
<svg xmlns="http://www.w3.org/2000/svg" viewBox="0 0 800 600">
  <g style="fill: none; isolation: isolate;">
    <polygon points="69.38 50.23 99.29 38.27 275.33 168.69 245.41 180.65 69.38 50.23" style="fill: #547f9a;" />
    <polygon points="69.38 50.23 245.41 180.65 445.65 329 246.96 392.56 72.28 448.43 69.38 50.23"
      style="fill: #72acd2;" />
    <polygon points="245.41 180.65 275.33 168.69 475.56 317.04 445.65 329 245.41 180.65" style="fill: #547f9a;" />
    <polygon points="340.72 412.49 370.63 400.53 569.33 336.97 539.42 348.93 340.72 412.49" style="fill: #a32856;" />
    <polygon points="338.55 115.28 368.47 103.32 744.74 382.09 714.83 394.05 338.55 115.28" style="fill: #992651;" />
    <polygon points="338.55 115.28 714.83 394.05 341.45 513.48 340.72 412.49 539.42 348.93 339.17 200.58 338.55 115.28"
      style="fill: #d0336f;" />
  </g>
</svg>