<?xml version="1.0" encoding="UTF-8"?>
<svg xmlns="http://www.w3.org/2000/svg"viewBox="0 0 800 600">
  <title>Spoiler</title>
  <path fill="#62a9dc" d="M20 88v268l732 156V244L20 88Z"/>
  <path fill="#396280" d="m752 244 28-12v269l-28 11V244Z"/>
  <path fill="#447598" d="m20 88 28-11 732 155-28 12L20 88Z"/>
  <path fill="#8e214a" d="M330 285 201 128l54-42 129 157 129-101 54 65-129 101 129 157-54 42-129-156-129 100-54-65 129-101Z"/>
  <path fill="#8e214a" d="m255 451-30 6 21-17m267 67-30 6 21-17"/>
  <path fill="#a02655" d="m513 142-30 5 54 66 30-6-54-65ZM255 86l-30 6 129 156 21-16L255 86Zm183 222-30 6 129 157 30-6-129-157Z"/>
  <path fill="#d0306e" d="M300 290 171 134l54-42 129 156 129-101 54 66-129 101 129 157-54 42-129-157-129 101-54-66 129-101Z"/>
</svg>