<?xml version="1.0" encoding="UTF-8"?>
<svg xmlns="http://www.w3.org/2000/svg" viewBox="0 0 800 600">
  <title>Toggle</title>
  <path
    d="m589.32,126.09L238.43,51.51c-20.45-4.35-39.71-2.58-56.67,4.2l-29.91,11.96c16.96-6.78,36.22-8.55,56.67-4.2l350.89,74.58c68.93,14.65,125.3,93.2,125.9,175.44.42,57.84-26.86,102.11-67.07,118.18l29.91-11.96c40.21-16.08,67.49-60.34,67.07-118.18-.6-82.25-56.97-160.79-125.9-175.44Z"
    style="fill: #689dbf;" />
  <path
    d="m559.41,138.05c68.93,14.65,125.3,93.2,125.9,175.44.6,82.24-54.8,137.03-123.74,122.38l-350.89-74.58c-68.93-14.65-125.31-93.21-125.9-175.44-.6-82.25,54.8-137.03,123.74-122.38l350.89,74.58Z"
    style="fill: #72add3;" />
  <path
    d="m634.47,215c-22.51-33.47-52.95-54.46-83.37-60.92-17.65-3.75-35.3-2.61-51.38,3.82l-29.91,11.96c16.09-6.43,33.73-7.57,51.38-3.82,30.42,6.46,60.86,27.46,83.37,60.92,42.87,63.73,40.74,148.56-4.74,189.48l-1.8,1.63c-7.74,6.96-16.24,12.21-25.22,15.8l29.91-11.96c8.98-3.59,17.48-8.83,25.22-15.8l1.8-1.63c45.48-40.92,47.61-125.75,4.74-189.48Z"
    style="fill: #bc2c64;" />
  <path
    d="m521.19,166.04c30.42,6.46,60.86,27.46,83.37,60.92,42.87,63.73,40.74,148.56-4.74,189.48l-1.8,1.63c-21.6,19.43-49.09,25.46-76.6,19.62-30.42-6.47-60.86-27.46-83.37-60.92-42.87-63.73-40.75-148.57,4.74-189.48l1.8-1.63c21.6-19.43,49.09-25.46,76.6-19.62Z"
    style="fill: #d0306e;" />
</svg>