<?xml version="1.0" encoding="UTF-8" standalone="no"?>
<!DOCTYPE svg PUBLIC "-//W3C//DTD SVG 1.1//EN" "http://www.w3.org/Graphics/SVG/1.1/DTD/svg11.dtd"><svg width="100%"
    height="100%" viewBox="0 0 800 600" version="1.1" xmlns="http://www.w3.org/2000/svg"
    xmlns:xlink="http://www.w3.org/1999/xlink" xml:space="preserve" xmlns:serif="http://www.serif.com/"
    style="fill-rule:evenodd;clip-rule:evenodd;stroke-linejoin:round;stroke-miterlimit:2;">
    <title>View Transitions</title>
    <g>
        <path d="M321.419,203.184l-0.04,200.311l134.422,-74.382l-134.382,-125.929Z" style="fill:#d0306e;" />
        <path d="M455.801,329.113l21.021,-8.493l-134.421,74.382l-21.022,8.493l134.422,-74.382Z" style="fill:#8e214a;" />
        <path d="M321.417,203.184l21.021,-8.493l134.384,125.929l-21.021,8.493l-134.384,-125.929Z"
            style="fill:#a02655;" />
    </g>
    <g>
        <path d="M33.967,71.848l-0.054,374.11l246.386,43.412l0.054,-374.109l-246.386,-43.413Z" style="fill:#62a9dc;" />
        <path d="M280.407,115.261l17.186,-5.756l-0.053,374.11l-17.187,5.755l0.054,-374.109Z" style="fill:#396280;" />
        <path d="M33.966,71.849l17.186,-5.756l246.388,43.413l-17.187,5.755l-246.387,-43.412Z" style="fill:#447598;" />
    </g>
    <g>
        <path d="M491.747,152.478l-0.054,374.11l246.385,43.412l0.054,-374.11l-246.385,-43.412Z" style="fill:#62a9dc;" />
        <path d="M738.186,195.89l17.187,-5.755l-0.054,374.109l-17.187,5.756l0.054,-374.11Z" style="fill:#396280;" />
        <path d="M491.745,152.479l17.187,-5.756l246.387,43.412l-17.187,5.756l-246.387,-43.412Z" style="fill:#447598;" />
    </g>
</svg>